<svg width="960" height="960" viewBox="0 0 960 960" fill="none" xmlns="http://www.w3.org/2000/svg">
<path fill-rule="evenodd" clip-rule="evenodd" d="M708.374 631.231L683.228 673.578L683.111 673.63C682.818 673.077 682.47 672.555 682.072 672.072C677.489 666.572 667.844 669.099 663.689 674.928C659.997 680.108 659.279 686.693 658.581 693.088C658.494 693.889 658.407 694.686 658.314 695.478C654.593 726.613 640.235 755.508 617.667 777.278C617.407 777.538 617.135 777.797 616.862 778.044C599.04 782.727 580.948 786.316 562.688 788.793C534.655 792.609 506.331 793.843 478.071 792.48L478.24 788.962C465.492 670.787 452.74 552.608 439.982 434.424L460.156 432.516C460.189 432.516 460.218 432.513 460.247 432.51C460.277 432.506 460.306 432.503 460.338 432.503C470.087 431.568 480.447 430.803 489.106 435.359C497.817 439.942 503.23 452.132 497.285 459.973L497.493 460.895C526.677 454.183 557.6 454.508 586.316 462.995C615.227 471.563 641.775 488.544 660.742 511.989C687.68 545.314 697.842 588.739 707.242 630.554L708.374 631.231ZM614.15 484.146C614.828 483.311 616.055 483.184 616.889 483.863C657.962 517.239 684.126 565.537 689.649 618.171C689.761 619.241 688.985 620.199 687.915 620.311C686.846 620.423 685.887 619.647 685.775 618.577C680.36 566.968 654.705 519.611 614.433 486.885C613.598 486.207 613.471 484.981 614.15 484.146ZM484.952 440.278C484.073 439.657 482.858 439.865 482.237 440.744C481.616 441.622 481.825 442.837 482.703 443.458C484.706 444.875 486.13 446.967 486.712 449.351C487.293 451.734 486.994 454.248 485.869 456.428C485.376 457.384 485.751 458.559 486.707 459.052C487.663 459.545 488.838 459.17 489.331 458.214C490.887 455.199 491.3 451.723 490.495 448.427C489.691 445.131 487.722 442.237 484.952 440.278Z" fill="url(#paint0_linear_36_2473)"/>
<path fill-rule="evenodd" clip-rule="evenodd" d="M857.564 175.487C861.731 152.7 864.276 127.908 853.345 107.5C842.908 88.026 822.084 76.368 801.21 69.102C769.252 57.976 733.963 54.77 701.352 63.844C668.741 72.918 639.22 95.091 624.732 125.677C612.373 151.77 611.464 182.11 616.8 210.488C622.136 238.866 633.313 265.752 644.426 292.404C660.995 332.159 677.569 371.906 694.147 411.644C702.355 431.346 710.569 451.044 718.787 470.738C722.898 480.596 727.005 490.445 731.107 500.285C731.84 502.042 732.611 504.331 733.455 506.835C735.973 514.304 739.136 523.687 743.855 526.585C754.537 508.207 761.482 485.744 768.172 464.108C770.962 455.085 773.707 446.206 776.661 437.827C787.28 407.67 797.665 377.435 808.038 347.2C827.394 290.793 846.828 234.14 857.564 175.487ZM764.185 107.928C792.629 129.088 792.226 174.954 762.173 194.323V194.322C745.179 205.266 721.301 204.474 705.39 192.026C691.201 180.926 684.411 161.038 688.76 143.564C695.627 115.951 738.377 88.728 764.185 107.928ZM797.714 81.0752C796.668 80.8245 795.617 81.4693 795.366 82.5152C795.115 83.5612 795.76 84.6123 796.806 84.8629C812.876 88.7139 826.048 101.596 832.798 116.966C839.547 132.335 840.449 149.874 838.081 166.74C835.71 183.626 830.261 199.934 824.763 216.326C824.421 217.346 824.971 218.45 825.991 218.792C827.01 219.133 828.114 218.584 828.456 217.564C833.935 201.229 839.509 184.582 841.938 167.282C844.37 149.962 843.495 131.637 836.364 115.4C829.234 99.1642 815.211 85.2682 797.714 81.0752Z" fill="url(#paint1_linear_36_2473)"/>
<path fill-rule="evenodd" clip-rule="evenodd" d="M562.691 788.794C534.658 792.61 506.333 793.844 478.074 792.481L478.242 788.962C465.485 670.779 452.732 552.599 439.984 434.424C428.685 435.495 417.382 436.564 406.075 437.631L404.375 437.787C396.3 438.553 387.693 439.539 381.436 444.719C379.428 446.443 377.864 448.626 376.877 451.082C375.889 453.538 375.507 456.195 375.763 458.83L375.711 458.843C297.338 458.207 218.459 495.72 173.568 559.96C128.677 624.2 121.264 714.1 159.4 782.562C199.549 854.664 281.192 894.622 362.2 910.422C438.36 925.114 516.855 922.407 591.821 902.503L591.6 901.672C584.78 863.562 575.143 826.01 562.769 789.326L562.691 788.794ZM409.607 648.887C410.009 655.884 410.19 663.609 405.79 669.061C400.48 675.63 390.848 676.2 382.412 676.242C364.473 676.314 346.54 676.383 328.612 676.45C324.445 676.476 319.824 676.32 316.812 673.438C313.722 670.479 313.437 665.727 313.359 661.456C312.874 636.941 312.385 612.423 311.892 587.9V586.742C342.478 580.813 373.503 577.43 404.648 576.629L405.466 576.902C406.851 600.888 408.231 624.883 409.607 648.887ZM208.452 657.072C208.086 656.061 206.97 655.537 205.958 655.902C204.947 656.268 204.423 657.384 204.789 658.396C219.602 699.393 252.735 731.547 289.999 753.556C327.245 775.554 368.912 788.639 409.907 801.47C410.934 801.791 412.026 801.219 412.348 800.193C412.669 799.166 412.097 798.074 411.071 797.752C370.003 784.899 328.774 771.934 291.98 750.202C255.204 728.481 222.86 696.946 208.452 657.072Z" fill="url(#paint2_linear_36_2473)"/>
<path d="M617.669 777.279C623.407 794.831 629.141 812.378 634.869 829.921C640.594 847.421 646.315 864.921 652.031 882.421C632.403 890.373 612.293 897.08 591.821 902.504L591.6 901.673C584.779 863.563 575.142 826.012 562.767 789.327L562.689 788.795C580.949 786.317 599.041 782.728 616.863 778.046C617.137 777.8 617.409 777.538 617.669 777.279Z" fill="url(#paint3_linear_36_2473)"/>
<path d="M510.244 270.124L510.711 270.682C517.267 266.294 524.16 261.789 532.001 260.982C539.842 260.175 548.813 264.461 550.461 272.172C551.837 278.572 547.683 285.154 542.101 288.594C536.519 292.034 529.807 292.982 523.301 293.683C513.772 294.709 504.217 295.349 494.637 295.604C475.953 296.101 457.259 295.146 438.724 292.748C425.56 291.048 409.696 289.619 401.492 300.07C395.884 307.21 396.351 317.232 397.078 326.281C397.818 335.472 398.558 344.659 399.298 353.842L398.805 353.881C393.976 358.593 392.005 365.474 388.03 370.939C384.055 376.404 375.983 380.325 370.725 376.093C366.013 372.293 367.038 364.747 369.816 359.372C372.594 353.997 376.774 348.986 377.19 342.937C375.1 347.13 372.776 351.583 368.622 353.751C364.468 355.919 358.094 354.244 357.315 349.623C356.977 347.611 357.756 345.586 358.522 343.69C364.532 328.748 370.547 313.801 376.567 298.85C380.384 289.386 384.551 279.442 392.678 273.25C402.678 265.643 416.266 265.461 428.846 266.499C425.957 258.387 425.373 249.634 427.158 241.21C427.95 237.484 429.558 233.46 433.039 231.902C438.284 229.565 444.178 234.446 446.19 239.821C448.202 245.196 448.008 251.232 450.175 256.555L450.253 256.542C447.399 247.211 447.797 237.187 451.382 228.111C453.161 223.645 457.133 218.829 461.768 220.088C464.936 220.932 466.688 224.255 467.883 227.306C468.931 229.958 469.845 232.662 470.622 235.406C471.374 230.202 473.167 225.203 475.893 220.706C479.281 215.15 485.967 210.048 491.861 212.826C496.106 214.838 497.729 219.992 498.361 224.653C499.842 235.894 498.1 247.325 493.337 257.614L493.428 257.653C493.571 258.198 493.701 258.743 493.828 259.289C495.788 253.395 497.788 247.41 501.422 242.399C505.056 237.388 510.639 233.377 516.832 233.221C523.025 233.065 529.438 237.7 529.84 243.879C530.165 248.656 527.127 252.966 524.011 256.601C519.823 261.5 515.217 266.025 510.244 270.124V270.124Z" fill="#171717"/>
<path d="M409.608 648.887C410.008 655.887 410.192 663.609 405.791 669.061C400.481 675.63 390.849 676.201 382.41 676.24C364.469 676.307 346.536 676.376 328.61 676.448C324.443 676.474 319.821 676.318 316.81 673.436C313.72 670.476 313.435 665.725 313.357 661.454C312.864 636.931 312.375 612.413 311.89 587.898V586.743C342.476 580.814 373.501 577.431 404.646 576.63L405.464 576.903C406.841 600.892 408.222 624.887 409.608 648.887Z" fill="url(#paint4_linear_36_2473)"/>
<path d="M497.288 459.973C503.234 452.132 497.82 439.942 489.109 435.359C480.45 430.802 470.09 431.568 460.341 432.503C460.276 432.503 460.224 432.516 460.159 432.516L439.985 434.424C428.691 435.491 417.388 436.56 406.076 437.631L404.376 437.787C396.301 438.553 387.694 439.54 381.437 444.719C379.429 446.444 377.865 448.626 376.877 451.082C375.89 453.538 375.508 456.195 375.764 458.83C375.895 460.195 376.302 461.52 376.96 462.723C377.619 463.926 378.515 464.983 379.594 465.83" stroke="#171717" stroke-width="3.895" stroke-linecap="round" stroke-linejoin="round"/>
<path d="M375.711 458.843C297.339 458.207 218.46 495.712 173.568 559.96C128.676 624.208 121.268 714.095 159.392 782.56C199.545 854.66 281.192 894.621 362.197 910.42C438.358 925.112 516.855 922.404 591.823 902.5C612.295 897.076 632.405 890.369 652.033 882.417C646.321 864.917 640.6 847.417 634.871 829.917C629.146 812.365 623.413 794.818 617.671 777.275C617.658 777.236 617.645 777.184 617.632 777.145" stroke="#171717" stroke-width="3.895" stroke-linecap="round" stroke-linejoin="round"/>
<path d="M285.083 514.8C244.93 525.419 216.966 566.313 214.993 607.8C213.02 649.287 233.843 689.716 264.221 718.043C294.599 746.37 333.688 763.792 373.607 775.268C407.647 785.024 442.703 790.801 478.073 792.482C506.332 793.845 534.657 792.611 562.69 788.795C580.95 786.317 599.042 782.728 616.864 778.046L617.604 777.851" stroke="#171717" stroke-width="3.895" stroke-linecap="round" stroke-linejoin="round"/>
<path d="M616.319 778.564C616.501 778.395 616.682 778.226 616.864 778.045C617.137 777.798 617.409 777.539 617.664 777.279C640.233 755.509 654.591 726.614 658.311 695.479C659.142 688.365 659.531 680.77 663.686 674.929C667.841 669.088 677.486 666.569 682.069 672.073C682.467 672.556 682.815 673.078 683.108 673.631C684.653 676.539 684.708 680.174 684.588 683.549C684.24 692.994 683.172 702.399 681.394 711.681C679.265 722.781 677.188 736.723 686.483 743.162C692.065 747.031 699.556 746.213 706.242 744.941C734.391 739.615 761.36 729.296 785.874 714.472C789.665 712.187 793.988 709.682 798.259 710.889C803.53 712.369 805.789 719.172 804.101 724.389C803.396 726.485 802.299 728.428 800.868 730.114C798.717 732.58 796.251 734.754 793.533 736.579C781.671 744.974 768.169 750.769 753.912 753.585" stroke="#171717" stroke-width="3.895" stroke-linecap="round" stroke-linejoin="round"/>
<path d="M800.872 730.115C806.104 731.231 809.648 736.736 809.635 742.084C809.622 747.432 806.649 752.431 802.729 756.084C801.35 757.358 799.87 758.517 798.302 759.55C795.386 761.438 792.365 763.159 789.254 764.704C779.542 769.728 769.836 774.752 760.135 779.776" stroke="#171717" stroke-width="3.895" stroke-linecap="round" stroke-linejoin="round"/>
<path d="M798.768 760.22C805.882 766.114 804.845 778.044 798.964 785.158C793.083 792.272 783.93 795.7 775.128 798.491C750.086 806.423 724.278 811.629 698.521 816.822C678.049 820.95 657.576 825.074 637.104 829.194" stroke="#171717" stroke-width="3.895" stroke-linecap="round" stroke-linejoin="round"/>
<path d="M683.229 673.578L708.375 631.231L726.758 600.269L827.094 626.843L837.636 641.954L798.261 710.889" stroke="#171717" stroke-width="3.895" stroke-linecap="round" stroke-linejoin="round"/>
<path d="M496.872 461.037C497.08 460.985 497.287 460.946 497.495 460.894C526.679 454.182 557.602 454.507 586.318 462.994C615.229 471.562 641.777 488.543 660.744 511.988C687.682 545.313 697.844 588.738 707.244 630.553" stroke="#171717" stroke-width="3.895" stroke-linecap="round" stroke-linejoin="round"/>
<path d="M563.808 503.553C624.953 563.686 655.331 653.625 643.154 738.514" stroke="#171717" stroke-width="3.895" stroke-linecap="round" stroke-linejoin="round"/>
<path d="M439.984 434.4V434.426C452.732 552.601 465.485 670.781 478.242 788.964" stroke="#171717" stroke-width="3.895" stroke-linecap="round" stroke-linejoin="round"/>
<path d="M405.466 576.9C406.842 600.891 408.222 624.886 409.607 648.885C410.007 655.885 410.191 663.607 405.79 669.059C400.48 675.628 390.848 676.199 382.409 676.238C364.467 676.305 346.534 676.374 328.609 676.446C324.442 676.472 319.82 676.316 316.809 673.434C313.719 670.474 313.434 665.723 313.356 661.452C312.862 636.929 312.373 612.411 311.889 587.896" stroke="#171717" stroke-width="3.895" stroke-linecap="round" stroke-linejoin="round"/>
<path d="M311.892 586.742C342.478 580.813 373.503 577.43 404.648 576.629" stroke="#171717" stroke-width="3.895" stroke-linecap="round" stroke-linejoin="round"/>
<path d="M562.769 789.326C575.143 826.011 584.78 863.562 591.601 901.672" stroke="#171717" stroke-width="3.895" stroke-linecap="round" stroke-linejoin="round"/>
<path d="M808.038 347.2C827.394 290.793 846.828 234.14 857.564 175.487C861.731 152.704 864.276 127.908 853.345 107.5C842.907 88.027 822.084 76.369 801.209 69.1C769.247 57.974 733.962 54.755 701.351 63.842C668.74 72.929 639.219 95.09 624.731 125.675C612.372 151.769 611.463 182.121 616.799 210.486C622.135 238.851 633.312 265.75 644.425 292.402C661.003 332.153 677.576 371.899 694.146 411.642C702.364 431.349 710.577 451.047 718.786 470.736C722.888 480.589 726.994 490.438 731.106 500.283C734.027 507.283 737.558 522.716 743.854 526.583C758.991 500.541 766.624 466.295 776.66 437.825C787.28 407.668 797.665 377.433 808.038 347.2Z" stroke="#171717" stroke-width="3.895" stroke-linecap="round" stroke-linejoin="round"/>
<path d="M705.389 192.024C721.305 204.474 745.179 205.266 762.172 194.324C792.225 174.955 792.628 129.089 764.184 107.929C738.376 88.729 695.626 115.952 688.759 143.565C684.41 161.036 691.201 180.925 705.389 192.024Z" stroke="#171717" stroke-width="3.895" stroke-linecap="round" stroke-linejoin="round"/>
<path d="M460.21 431.114C455.264 424.792 457.588 415.25 462.43 408.85C467.272 402.45 474.153 397.85 479.346 391.74C489.861 379.329 492.354 362.063 492.497 345.797C492.64 329.531 490.897 313.017 494.691 297.205" stroke="#171717" stroke-width="3.895" stroke-linecap="round" stroke-linejoin="round"/>
<path d="M405.933 436.164C403.713 408.733 401.502 381.294 399.299 353.845C398.559 344.654 397.819 335.467 397.079 326.284C396.352 317.236 395.885 307.213 401.493 300.073C409.693 289.622 425.562 291.051 438.725 292.751C457.261 295.149 475.955 296.104 494.638 295.607C504.22 295.347 513.774 294.707 523.302 293.686C529.802 292.986 536.531 292.037 542.102 288.597C547.673 285.157 551.839 278.575 550.462 272.175C548.813 264.464 539.843 260.175 532.002 260.985C524.161 261.795 517.267 266.295 510.712 270.685" stroke="#171717" stroke-width="3.895" stroke-linecap="round" stroke-linejoin="round"/>
<path d="M509.201 270.981C509.552 270.695 509.889 270.423 510.24 270.124C515.215 266.028 519.823 261.506 524.014 256.61C527.13 252.975 530.168 248.665 529.843 243.888C529.443 237.709 523.027 233.061 516.835 233.23C510.643 233.399 505.047 237.384 501.425 242.408C497.803 247.432 495.791 253.408 493.831 259.298C493.701 258.753 493.571 258.208 493.431 257.662" stroke="#171717" stroke-width="3.895" stroke-linecap="round" stroke-linejoin="round"/>
<path d="M492.964 258.414C493.094 258.154 493.211 257.895 493.34 257.622C498.104 247.333 499.846 235.902 498.364 224.661C497.728 220 496.105 214.847 491.864 212.834C485.97 210.056 479.284 215.158 475.896 220.714C473.171 225.211 471.379 230.21 470.625 235.414C469.529 242.556 470.395 249.861 473.131 256.549" stroke="#171717" stroke-width="3.895" stroke-linecap="round" stroke-linejoin="round"/>
<path d="M473.971 256.623C473.722 249.442 472.597 242.318 470.622 235.41C469.846 232.666 468.931 229.962 467.883 227.31C466.689 224.259 464.936 220.936 461.768 220.092C457.133 218.833 453.161 223.649 451.382 228.115C447.797 237.191 447.399 247.215 450.253 256.546" stroke="#171717" stroke-width="3.895" stroke-linecap="round" stroke-linejoin="round"/>
<path d="M450.175 256.558C448.007 251.235 448.202 245.212 446.19 239.824C444.178 234.436 438.284 229.568 433.039 231.905C429.56 233.463 427.95 237.487 427.158 241.213C425.372 249.637 425.957 258.39 428.846 266.502C429.106 267.255 429.391 267.995 429.703 268.735C430.092 268.397 430.469 268.06 430.858 267.735" stroke="#171717" stroke-width="3.895" stroke-linecap="round" stroke-linejoin="round"/>
<path d="M429.885 266.593C429.534 266.567 429.197 266.528 428.846 266.502C416.266 265.463 402.674 265.645 392.678 273.253C384.551 279.445 380.384 289.39 376.567 298.853C370.556 313.808 364.541 328.754 358.522 343.693C357.756 345.593 356.977 347.614 357.315 349.626C358.094 354.248 364.481 355.926 368.622 353.754C372.763 351.582 375.1 347.133 377.19 342.94C376.775 348.99 372.607 353.988 369.816 359.375C367.025 364.762 366.016 372.292 370.725 376.096C375.983 380.328 384.07 376.408 388.03 370.942C391.99 365.476 393.976 358.596 398.805 353.884" stroke="#171717" stroke-width="3.895" stroke-linecap="round" stroke-linejoin="round"/>
<path d="M442.646 389.364C439.39 390.113 435.97 389.599 433.079 387.924C430.187 386.249 428.039 383.539 427.068 380.342" stroke="#171717" stroke-width="3.895" stroke-linecap="round" stroke-linejoin="round"/>
<path d="M433.493 323.545C431.649 322.577 429.513 322.321 427.493 322.826C425.472 323.331 423.708 324.562 422.536 326.284" stroke="#171717" stroke-width="3.895" stroke-linecap="round" stroke-linejoin="round"/>
<path d="M474.738 323.532C473.051 321.898 470.843 320.909 468.501 320.738C466.159 320.567 463.831 321.225 461.925 322.597" stroke="#171717" stroke-width="3.895" stroke-linecap="round" stroke-linejoin="round"/>
<path d="M475.373 304.4C466.688 305.231 458.003 306.058 449.318 306.88C452.318 325.08 455.318 343.285 458.318 361.495C452.788 361.91 447.266 362.321 441.753 362.728" stroke="#171717" stroke-width="3.895" stroke-linecap="round" stroke-linejoin="round"/>
<path d="M350.577 273.3L363.5 260.56" stroke="#171717" stroke-width="3.895" stroke-linecap="round" stroke-linejoin="round"/>
<path d="M363.9 274.416L351.575 257.694" stroke="#171717" stroke-width="3.895" stroke-linecap="round" stroke-linejoin="round"/>
<path d="M399.02 212.038C403.236 203.316 408.152 194.949 413.72 187.021" stroke="#171717" stroke-width="3.895" stroke-linecap="round" stroke-linejoin="round"/>
<path d="M416.033 209.643C409.987 202.286 403.271 195.507 395.971 189.392" stroke="#171717" stroke-width="3.895" stroke-linecap="round" stroke-linejoin="round"/>
<path d="M625.601 100.863C623.974 96.993 622.347 93.1227 620.721 89.252" stroke="#171717" stroke-width="3.895" stroke-linecap="round" stroke-linejoin="round"/>
<path d="M610.445 118.4L546.826 89.874" stroke="#171717" stroke-width="3.895" stroke-linecap="round" stroke-linejoin="round"/>
<path d="M599.388 141.628L590.832 141.064" stroke="#171717" stroke-width="3.895" stroke-linecap="round" stroke-linejoin="round"/>
<path d="M595.059 169.448L556.601 173.416" stroke="#171717" stroke-width="3.895" stroke-linecap="round" stroke-linejoin="round"/>
<path d="M637.3 84.334C633.434 69.672 629.567 55.0097 625.7 40.347" stroke="#171717" stroke-width="3.895" stroke-linecap="round" stroke-linejoin="round"/>
<path d="M251.714 382.526C260.596 361.59 254.298 335.574 237.766 319.957C221.234 304.34 195.859 299.381 174.171 306.226C152.483 313.071 134.937 330.947 127.035 352.272C119.133 373.597 120.57 397.91 129.486 418.832C135.215 432.276 144.461 444.887 157.665 451.151C170.869 457.415 188.399 455.79 197.973 444.751C206.481 434.94 206.891 419.618 200.587 408.264C194.283 396.91 182.272 389.433 169.6 386.6C144.761 381.049 116.985 393.535 104.649 415.8C93.8343 435.318 94.8173 459.144 98.3763 481.172C101.935 503.2 107.786 525.272 105.693 547.492C104.107 564.329 96.5193 582.184 81.1363 589.208C76.2305 591.448 70.8457 592.436 65.4642 592.084C60.0827 591.732 54.8725 590.051 50.3003 587.191C45.7281 584.331 41.9366 580.382 39.2654 575.697C36.5942 571.012 35.1267 565.737 34.9943 560.346C34.7093 548.725 43.1243 536.041 54.7483 536.171C66.4593 536.3 74.3243 548.56 76.8613 560C86.6443 604.1 51.3253 648.415 59.2613 692.885" stroke="#171717" stroke-width="3.895" stroke-linecap="round" stroke-linejoin="round"/>
<path d="M841.784 453.648C831.628 464.692 823.843 477.701 818.911 491.871C813.979 506.041 812.003 521.072 813.107 536.035C814.162 549.291 817.874 562.725 826.226 573.074C834.578 583.423 848.16 590.14 861.265 587.879C874.37 585.618 885.576 572.918 883.911 559.724C882.246 546.53 865.658 536.949 854.273 543.824C844.973 549.438 842.696 562.01 843.696 572.824C844.978 586.465 849.883 599.515 857.903 610.624C870.919 628.594 891.425 640.496 902.662 659.629C907.853 668.467 910.795 678.443 911.233 688.683C911.67 698.923 909.587 709.114 905.169 718.362C900.75 727.61 894.13 735.632 885.889 741.726C877.647 747.819 868.037 751.798 857.9 753.312" stroke="url(#paint5_linear_36_2473)" stroke-width="3.895" stroke-linecap="round" stroke-linejoin="round"/>
<path d="M313 602.883L403.663 592.739" stroke="#171717" stroke-width="3.895" stroke-linecap="round" stroke-linejoin="round"/>
<path d="M446.912 504.565C442.626 480.208 433.028 457.093 418.8 436.865" stroke="#171717" stroke-width="3.895" stroke-linecap="round" stroke-linejoin="round"/>
<path d="M903.038 621.365L912.838 606.719" stroke="#171717" stroke-width="3.895" stroke-linecap="round" stroke-linejoin="round"/>
<path d="M913.422 619.477L900.754 607.093" stroke="#171717" stroke-width="3.895" stroke-linecap="round" stroke-linejoin="round"/>
<path d="M873.682 727.031L880.402 716.645" stroke="#171717" stroke-width="3.895" stroke-linecap="round" stroke-linejoin="round"/>
<path d="M880.985 725.861C877.046 723.885 873.691 720.916 871.251 717.247" stroke="#171717" stroke-width="3.895" stroke-linecap="round" stroke-linejoin="round"/>
<path d="M196.08 347.3L204.313 329.882" stroke="#171717" stroke-width="3.895" stroke-linecap="round" stroke-linejoin="round"/>
<path d="M206.949 344.885L192.4 333.739" stroke="#171717" stroke-width="3.895" stroke-linecap="round" stroke-linejoin="round"/>
<path d="M61.4668 498.548L70.6308 485.719" stroke="url(#paint6_linear_36_2473)" stroke-width="3.895" stroke-linecap="round" stroke-linejoin="round"/>
<path d="M71.6668 499.356L59.5078 485.831" stroke="url(#paint7_linear_36_2473)" stroke-width="3.895" stroke-linecap="round" stroke-linejoin="round"/>
<path d="M575.383 620.634L583.366 606.606" stroke="#171717" stroke-width="3.895" stroke-linecap="round" stroke-linejoin="round"/>
<path d="M521.792 573.08L507.741 562.694" stroke="#171717" stroke-width="3.895" stroke-linecap="round" stroke-linejoin="round"/>
<path d="M547.5 536.435C548.551 531.505 551.069 527.008 554.722 523.535" stroke="#171717" stroke-width="3.895" stroke-linecap="round" stroke-linejoin="round"/>
<path d="M496.135 654.943C497.411 651.451 499.764 648.456 502.855 646.39" stroke="#171717" stroke-width="3.895" stroke-linecap="round" stroke-linejoin="round"/>
<path d="M568.222 703.205L556.615 690.987" stroke="#171717" stroke-width="3.895" stroke-linecap="round" stroke-linejoin="round"/>
<path d="M605.357 664.643L610.898 654.893" stroke="#171717" stroke-width="3.895" stroke-linecap="round" stroke-linejoin="round"/>
<path d="M596.001 719.318L586.141 731.467" stroke="#171717" stroke-width="3.895" stroke-linecap="round" stroke-linejoin="round"/>
<path d="M524.8 759.459L516.871 752.724" stroke="#171717" stroke-width="3.895" stroke-linecap="round" stroke-linejoin="round"/>
<path d="M642.086 578.561C643.31 574.531 645.668 570.938 648.878 568.211" stroke="#171717" stroke-width="3.895" stroke-linecap="round" stroke-linejoin="round"/>
<path d="M620.132 504.676L609.252 494.17" stroke="#171717" stroke-width="3.895" stroke-linecap="round" stroke-linejoin="round"/>
<path d="M662.862 644.522L670.257 633.569" stroke="#171717" stroke-width="3.895" stroke-linecap="round" stroke-linejoin="round"/>
<path d="M541.318 892.572L551.083 879.735" stroke="#171717" stroke-width="3.895" stroke-linecap="round" stroke-linejoin="round"/>
<path d="M485.493 839.123L473.378 828.623" stroke="#171717" stroke-width="3.895" stroke-linecap="round" stroke-linejoin="round"/>
<path d="M392.532 878.892C395.274 875.092 398.015 871.292 400.756 867.492" stroke="#171717" stroke-width="3.895" stroke-linecap="round" stroke-linejoin="round"/>
<path d="M357.554 815.549L346.554 799.058" stroke="#171717" stroke-width="3.895" stroke-linecap="round" stroke-linejoin="round"/>
<path d="M269.483 837C274.239 834.172 278.39 830.434 281.7 826" stroke="#171717" stroke-width="3.895" stroke-linecap="round" stroke-linejoin="round"/>
<path d="M227.062 774.2L219.9 758.846" stroke="#171717" stroke-width="3.895" stroke-linecap="round" stroke-linejoin="round"/>
<path d="M260.319 755.133L273.759 747.802" stroke="#171717" stroke-width="3.895" stroke-linecap="round" stroke-linejoin="round"/>
<path d="M186.932 649.278L175.279 654.678" stroke="#171717" stroke-width="3.895" stroke-linecap="round" stroke-linejoin="round"/>
<path d="M193.7 711.769C192.129 707.96 190.558 704.151 188.988 700.341" stroke="#171717" stroke-width="3.895" stroke-linecap="round" stroke-linejoin="round"/>
<path d="M203.543 548.64C203.943 553.731 204.345 558.822 204.75 563.914" stroke="#171717" stroke-width="3.895" stroke-linecap="round" stroke-linejoin="round"/>
<path d="M247.49 625.008C250.748 620.935 254.007 616.862 257.265 612.79" stroke="#171717" stroke-width="3.895" stroke-linecap="round" stroke-linejoin="round"/>
<path d="M287.155 563.964L277.372 554.809" stroke="#171717" stroke-width="3.895" stroke-linecap="round" stroke-linejoin="round"/>
<path d="M332.945 512.55C335.453 508.791 337.959 505.032 340.465 501.272" stroke="#171717" stroke-width="3.895" stroke-linecap="round" stroke-linejoin="round"/>
<path d="M422.201 553.545L413.101 542.492" stroke="#171717" stroke-width="3.895" stroke-linecap="round" stroke-linejoin="round"/>
<path d="M419.951 722.288L434.505 703.875" stroke="#171717" stroke-width="3.895" stroke-linecap="round" stroke-linejoin="round"/>
<path d="M340.237 735.147C336.371 732.623 333.432 728.907 331.866 724.563" stroke="#171717" stroke-width="3.895" stroke-linecap="round" stroke-linejoin="round"/>
<path d="M381.832 715.977L389.926 707.57" stroke="#171717" stroke-width="3.895" stroke-linecap="round" stroke-linejoin="round"/>
<path d="M457.614 759.441L449.664 751.507" stroke="#171717" stroke-width="3.895" stroke-linecap="round" stroke-linejoin="round"/>
<path d="M271.843 669.545L265.731 678.096" stroke="#171717" stroke-width="3.895" stroke-linecap="round" stroke-linejoin="round"/>
<path d="M499.184 496.11L489.141 487.25" stroke="#171717" stroke-width="3.895" stroke-linecap="round" stroke-linejoin="round"/>
<path fill-rule="evenodd" clip-rule="evenodd" d="M827.095 626.843L837.636 641.954L798.262 710.888C793.991 709.681 789.668 712.188 785.877 714.471C761.362 729.295 734.393 739.614 706.245 744.94C699.559 746.212 692.069 747.03 686.486 743.161C677.191 736.722 679.268 722.779 681.397 711.68C683.174 702.397 684.242 692.993 684.591 683.548C684.708 680.173 684.656 676.538 683.111 673.63L683.228 673.578L708.374 631.231L726.757 600.269L827.095 626.843ZM822.088 630.487C822.943 629.834 824.166 629.999 824.818 630.854C826.141 632.588 827.606 634.587 828.648 636.749C829.698 638.927 830.383 641.401 829.997 644.066C829.991 644.109 829.983 644.152 829.974 644.195C829.47 646.546 828.512 648.776 827.153 650.76L816.649 668.314C816.096 669.237 814.9 669.537 813.978 668.985C813.055 668.433 812.754 667.237 813.306 666.314L823.842 648.707C823.864 648.671 823.887 648.635 823.911 648.601C824.986 647.044 825.746 645.293 826.151 643.445C826.37 641.823 825.975 640.173 825.139 638.44C824.286 636.668 823.039 634.944 821.721 633.216C821.069 632.361 821.233 631.139 822.088 630.487ZM759.321 687.958C754.125 685.155 747.392 686.285 742.642 689.41C737.824 692.581 734.438 698.26 737.007 704.824C737.017 704.85 737.028 704.875 737.039 704.901C737.962 706.989 739.442 708.783 741.317 710.086C743.188 711.386 745.381 712.146 747.655 712.284C753.646 712.718 759.884 708.635 763.025 703.755C764.626 701.267 765.585 698.333 765.128 695.419C764.656 692.417 762.739 689.802 759.321 687.958ZM743.539 706.887C742.263 706.001 741.253 704.783 740.619 703.365C738.962 699.078 740.962 695.178 744.783 692.664C748.684 690.097 753.866 689.44 757.472 691.386C760.017 692.759 761.029 694.43 761.28 696.024C761.544 697.705 761.018 699.677 759.75 701.646C757.156 705.676 752.133 708.708 747.927 708.399L747.9 708.397C746.335 708.304 744.827 707.781 743.539 706.887Z" fill="#171717"/>
<path d="M324.34 230.857L342.112 227.206" stroke="url(#paint8_linear_36_2473)" stroke-width="3.895" stroke-linecap="round" stroke-linejoin="round"/>
<path d="M334.9 239.047C334.489 232.135 334.078 225.223 333.666 218.311" stroke="url(#paint9_linear_36_2473)" stroke-width="3.895" stroke-linecap="round" stroke-linejoin="round"/>
<g opacity="0.1">
<path d="M391.18 438.012C379.673 442.454 372.697 454.712 376.328 466.873L384.466 456.189C352.918 455.048 320.258 461.13 290.635 471.81C260.626 482.58 232.972 499.027 209.183 520.255C162.901 561.77 134.454 623.279 135.008 685.68C135.557 747.498 167.096 805.046 213.15 845.089C264.15 889.429 330.07 910.872 396.62 916.541C470.754 922.856 545.025 909.168 616.795 891.711C625.876 889.503 634.942 887.236 643.995 884.911C656.795 881.649 651.373 861.884 638.537 865.111C569.737 882.418 499.664 898.184 428.307 897.179C364.749 896.285 299.82 881.718 247.076 844.895C201.554 813.114 166.436 764.804 157.629 709.315C148.665 652.833 168.711 592.51 206.449 550.122C245.687 506.05 303.624 479.756 361.997 474.353C369.468 473.661 376.971 473.353 384.466 473.064C389.466 472.87 394.657 467.752 392.604 462.38C390.804 457.671 391.945 453.235 396.562 450.773C403.396 447.128 398.67 435.115 391.18 438.007V438.012Z" fill="#171717"/>
</g>
<g opacity="0.1">
<path d="M634.777 824.731C642.468 825.889 650.017 823.695 657.595 822.29C664.977 820.921 672.341 819.436 679.686 817.837C694.62 814.599 709.604 811.529 724.486 808.059C751.295 801.808 781.092 795.843 802.522 777.413C811.322 769.847 798.539 757.164 789.794 764.685C780.771 772.444 769.517 776.905 758.294 780.445C744.665 784.745 730.759 788.051 716.867 791.371C702.957 794.696 689.045 798.011 675.13 801.318C668.159 802.976 661.208 804.73 654.277 806.581C647.307 808.447 639.354 809.575 633.331 813.681C629.544 816.261 629.175 823.891 634.775 824.733L634.777 824.731Z" fill="#171717"/>
</g>
<g opacity="0.1">
<path d="M430.263 281.109C418.44 278.209 407.105 286.424 400.507 295.637C392.398 306.961 392.496 322.218 393.624 335.471C394.924 350.748 396.496 366.007 397.94 381.271C398.684 389.144 399.412 397.018 400.125 404.893C400.843 412.786 400.725 421.481 402.82 429.126C405.814 440.026 421.185 437.232 421.879 426.547C422.298 420.108 420.765 413.269 420.045 406.862C419.272 399.973 418.491 393.084 417.745 386.192C416.278 372.741 414.815 359.289 413.354 345.838C412.104 334.347 409.812 321.738 412.554 310.303C414.954 300.295 420.411 293.771 430.266 290.603C434.707 289.175 435.183 282.317 430.266 281.11L430.263 281.109Z" fill="#171717"/>
</g>
<g opacity="0.1">
<path d="M729.176 58.937C697.146 54.052 665.476 68.6711 645.112 93.3621C623.312 119.79 614.536 155.195 616.398 189.002C618.509 227.333 631.744 263.702 646.544 298.741C660.778 332.435 677.023 365.215 692.201 398.482C709.172 435.676 724.557 473.714 733.729 513.661C736.589 526.122 755.761 520.848 752.894 508.378C737.159 439.955 703.513 377.778 674.803 314.261C660.315 282.21 646.161 249.216 639.245 214.573C633.066 183.624 633.595 149.454 647.515 120.567C662.191 90.104 693.101 67.504 727.801 69.065C733.492 69.322 734.983 59.823 729.172 58.937H729.176Z" fill="#171717"/>
</g>
<defs>
<linearGradient id="paint0_linear_36_2473" x1="574.178" y1="431.792" x2="574.178" y2="793.017" gradientUnits="userSpaceOnUse">
<stop stop-color="#FF9A34"/>
<stop offset="1" stop-color="#EB6421"/>
</linearGradient>
<linearGradient id="paint1_linear_36_2473" x1="737.419" y1="58.5704" x2="737.419" y2="526.585" gradientUnits="userSpaceOnUse">
<stop stop-color="#FF9A34"/>
<stop offset="1" stop-color="#EB6421"/>
</linearGradient>
<linearGradient id="paint2_linear_36_2473" x1="363.323" y1="434.424" x2="363.323" y2="919.742" gradientUnits="userSpaceOnUse">
<stop stop-color="#FF9A34"/>
<stop offset="1" stop-color="#EB6421"/>
</linearGradient>
<linearGradient id="paint3_linear_36_2473" x1="607.36" y1="777.279" x2="607.36" y2="902.504" gradientUnits="userSpaceOnUse">
<stop stop-color="#FF9A34"/>
<stop offset="1" stop-color="#EB6421"/>
</linearGradient>
<linearGradient id="paint4_linear_36_2473" x1="360.844" y1="576.63" x2="360.844" y2="676.45" gradientUnits="userSpaceOnUse">
<stop stop-color="#FF9A34"/>
<stop offset="1" stop-color="#EB6421"/>
</linearGradient>
<linearGradient id="paint5_linear_36_2473" x1="862.05" y1="453.648" x2="862.05" y2="753.312" gradientUnits="userSpaceOnUse">
<stop stop-color="#FF9A34"/>
<stop offset="1" stop-color="#EB6421"/>
</linearGradient>
<linearGradient id="paint6_linear_36_2473" x1="66.0488" y1="485.719" x2="66.0488" y2="498.548" gradientUnits="userSpaceOnUse">
<stop stop-color="#FF9A34"/>
<stop offset="1" stop-color="#EB6421"/>
</linearGradient>
<linearGradient id="paint7_linear_36_2473" x1="65.5873" y1="485.831" x2="65.5873" y2="499.356" gradientUnits="userSpaceOnUse">
<stop stop-color="#FF9A34"/>
<stop offset="1" stop-color="#EB6421"/>
</linearGradient>
<linearGradient id="paint8_linear_36_2473" x1="333.226" y1="227.206" x2="333.226" y2="230.857" gradientUnits="userSpaceOnUse">
<stop stop-color="#FF9A34"/>
<stop offset="1" stop-color="#EB6421"/>
</linearGradient>
<linearGradient id="paint9_linear_36_2473" x1="334.283" y1="218.311" x2="334.283" y2="239.047" gradientUnits="userSpaceOnUse">
<stop stop-color="#FF9A34"/>
<stop offset="1" stop-color="#EB6421"/>
</linearGradient>
</defs>
</svg>
