<svg width="960" height="960" viewBox="0 0 960 960" fill="none" xmlns="http://www.w3.org/2000/svg">
<g clip-path="url(#clip0_385_971)">
<path fill-rule="evenodd" clip-rule="evenodd" d="M460.474 302.119C516.552 265.946 565.98 218.69 601.552 162.282C603.395 159.368 605.197 156.429 606.957 153.464C612.056 144.882 616.942 135.805 617.919 125.882C619.456 110.286 611.416 96.5035 603.283 82.5622C597.037 71.8568 590.737 61.0577 588.677 49.2715C588.188 74.5535 526.224 148.467 440.067 224.803C349.807 304.782 265.38 358.716 244.698 350.461C251.67 362.428 258.021 372.253 267.059 382.828C271.45 381.76 275.833 380.65 280.209 379.5C343.741 362.8 405.288 337.7 460.474 302.119ZM591.891 82.4756C591.373 81.8289 590.429 81.7244 589.782 82.2422C589.136 82.7599 589.031 83.7039 589.549 84.3506C598.651 95.7185 605.511 108.711 609.766 122.638C610.008 123.431 610.847 123.877 611.639 123.635C612.431 123.393 612.877 122.554 612.635 121.762C608.269 107.471 601.23 94.1399 591.891 82.4756Z" fill="#171717"/>
<path fill-rule="evenodd" clip-rule="evenodd" d="M463.324 778.353C543.018 777.274 622.886 782.678 701.44 796.022C698.417 740.612 687.401 695.055 672.154 657.712L669.654 658.424C637.033 669.661 605.654 685.469 579.415 707.869C575.73 711.025 572.148 714.302 568.596 717.63L566.988 715.9C542.81 719.168 518.199 715.728 495.843 705.956C490.067 703.422 484.48 700.48 478.895 697.54C471.605 693.701 464.32 689.865 456.626 686.943C443.039 681.783 429.38 679.727 416.28 686.017L416.229 686.007C404.626 726.801 395.934 765.009 390.54 790.668C396.164 787.963 402.024 785.779 408.046 784.144C425.97 779.238 444.749 778.607 463.324 778.353ZM674.964 688.681C674.728 687.887 673.892 687.435 673.098 687.672C672.304 687.908 671.852 688.743 672.089 689.537C680.995 719.452 685.447 750.515 685.3 781.726C685.296 782.555 685.965 783.229 686.793 783.233C687.622 783.237 688.296 782.569 688.3 781.74C688.448 750.234 683.954 718.878 674.964 688.681Z" fill="url(#paint0_linear_385_971)"/>
<path fill-rule="evenodd" clip-rule="evenodd" d="M346.356 439.621C388.32 470.933 445.765 502.021 505.246 498.221C505.185 498.272 505.114 498.333 505.052 498.388C508.936 499.152 512.939 499.069 516.787 498.144L517.459 498.215C559.973 452.77 582.965 397.665 594.914 345.33L592.533 344.8C581.795 380.067 555.188 409.125 523.301 427.1C491.414 445.075 454.59 452.678 418.101 453.93C403.089 454.439 387.811 453.757 373.216 449.93C368.402 448.669 354.814 444.75 346.793 439.03L346.356 439.621ZM565.94 409.247C566.227 408.469 565.829 407.607 565.052 407.32C564.274 407.034 563.412 407.431 563.125 408.208C554.217 432.358 541.249 454.807 524.78 474.589C524.25 475.225 524.336 476.171 524.973 476.701C525.61 477.231 526.555 477.145 527.085 476.508C543.773 456.464 556.913 433.716 565.94 409.247Z" fill="url(#paint1_linear_385_971)"/>
<path d="M702 811.942C701.583 800.308 630.194 793.407 542.55 796.532C456.525 799.595 386.815 811.188 384.657 822.608L384.23 822.527C384.708 819.87 386.855 808.196 390.54 790.669C396.164 787.964 402.024 785.78 408.046 784.145C425.97 779.239 444.746 778.608 463.324 778.354C543.018 777.275 622.886 782.679 701.44 796.023C701.736 801.275 701.949 806.615 702.081 812.043H702V811.942Z" fill="url(#paint2_linear_385_971)"/>
<path d="M544.056 838.658C456.402 841.783 385.023 834.882 384.606 823.248C384.597 823.033 384.614 822.818 384.657 822.607C386.815 811.187 456.525 799.594 542.55 796.531C630.194 793.406 701.583 800.307 702 811.941V812.041C702.001 823.635 631.445 835.544 544.056 838.658Z" fill="url(#paint3_linear_385_971)"/>
<path d="M384.606 823.248C385.023 834.882 456.406 841.783 544.056 838.658C631.445 835.544 702.001 823.635 702.001 812.042H702.082C701.948 806.607 701.735 801.267 701.441 796.022C708.393 797.192 715.341 798.434 722.286 799.747C725.93 800.429 729.828 801.274 732.322 804.022C732.985 804.758 733.516 805.604 733.889 806.522L734.113 806.422C740.8 821.422 746.663 841.638 743.874 854.402C740.963 867.714 738.774 881.832 729.523 891.837C716.657 905.737 696.688 910.055 677.95 912.854C588.728 926.169 497.736 921.312 410.439 898.575C389.757 893.175 367.325 885.2 357.086 866.432C348.18 850.132 351.386 828.946 362.154 813.801C369.32 803.715 379.345 796.081 390.541 790.666C386.856 808.193 384.709 819.866 384.231 822.524L384.658 822.605C384.615 822.816 384.598 823.032 384.606 823.248V823.248Z" fill="#171717"/>
<path d="M244.7 350.465C243.619 350.05 242.65 349.388 241.87 348.532C227.652 332.481 293.321 251.056 388.57 166.679C483.819 82.3021 572.534 26.9001 586.752 42.9541C588.181 44.7362 588.87 46.9993 588.676 49.2751C588.187 74.5571 526.223 148.475 440.066 224.807C349.806 304.786 265.379 358.72 244.7 350.465Z" stroke="#171717" stroke-width="3" stroke-linecap="round" stroke-linejoin="round"/>
<path d="M244.4 349.967C244.5 350.14 244.593 350.303 244.7 350.467C251.672 362.437 258.023 372.259 267.061 382.834" stroke="#171717" stroke-width="3" stroke-linecap="round" stroke-linejoin="round"/>
<path d="M267.059 382.832C271.446 381.766 275.829 380.656 280.209 379.504C343.741 362.804 405.288 337.704 460.474 302.119C516.555 265.946 565.98 218.69 601.552 162.282C603.394 159.372 605.194 156.434 606.952 153.468C612.052 144.888 616.937 135.809 617.914 125.886C620.631 98.3133 593.414 76.4103 588.672 49.2753C588.489 48.2163 588.336 47.1483 588.224 46.0693" stroke="#171717" stroke-width="3" stroke-linecap="round" stroke-linejoin="round"/>
<path d="M505.247 498.221C505.186 498.272 505.115 498.333 505.054 498.394C467.527 530.475 437.154 612.45 416.229 686.007C404.629 726.801 395.929 765.007 390.54 790.668C386.855 808.195 384.708 819.868 384.23 822.526C384.158 822.912 384.13 823.106 384.13 823.106" stroke="#171717" stroke-width="3" stroke-linecap="round" stroke-linejoin="round"/>
<path d="M601.552 162.262V162.282C601.827 163.83 616.718 249.967 594.916 345.336C582.967 397.671 559.975 452.776 517.461 498.221" stroke="#171717" stroke-width="3" stroke-linecap="round" stroke-linejoin="round"/>
<path d="M280.208 379.5C280.208 379.5 306.193 409.667 346.356 439.622C388.32 470.929 445.765 502.013 505.246 498.222" stroke="#171717" stroke-width="3" stroke-linecap="round" stroke-linejoin="round"/>
<path d="M517.461 498.221C517.461 498.221 619.781 529.421 672.161 657.712C687.408 695.055 698.42 740.612 701.443 796.022C701.738 801.274 701.952 806.614 702.084 812.042C702.095 812.236 702.105 812.429 702.105 812.622" stroke="#171717" stroke-width="3" stroke-linecap="round" stroke-linejoin="round"/>
<path d="M559.4 442.292C576.717 429.936 595.969 420.549 616.367 414.516" stroke="#171717" stroke-width="3" stroke-linecap="round" stroke-linejoin="round"/>
<path d="M619.658 400.267C623.243 381.246 632.235 363.662 645.558 349.621C646.87 362.891 643.983 376.237 637.304 387.778C656.498 365.455 682.773 350.397 711.736 345.122C699.909 361.642 683.916 374.734 665.385 383.066C675.92 378.801 686.546 374.496 697.731 372.466C708.916 370.436 720.856 370.828 731.131 375.673C713.789 385.865 694.43 392.149 674.408 394.085C692.262 392.706 710.085 397.113 725.238 406.655C727.589 408.141 730.154 410.879 728.738 413.27C727.73 414.98 725.349 415.123 723.364 415.07L624.087 412.23L626.652 412.444" stroke="#171717" stroke-width="3" stroke-linecap="round" stroke-linejoin="round"/>
<path d="M353.908 505.641C372.946 496.321 393.565 490.657 414.692 488.941" stroke="#171717" stroke-width="3" stroke-linecap="round" stroke-linejoin="round"/>
<path d="M340.656 501.793C326.462 496.912 311.002 497.19 296.992 502.577C291.079 504.867 284.792 509.183 284.592 515.524C292.297 515.666 300.002 515.805 307.707 515.941C290.62 531.591 276.049 549.783 264.507 569.875C263.601 571.442 262.787 573.6 264.069 574.862C265.463 576.256 267.804 575.106 269.382 573.936C280.924 565.376 292.469 556.82 304.018 548.267C291.844 561.39 283.183 577.376 278.837 594.74C278.278 596.999 278.359 600.24 280.649 600.674C282.217 600.979 283.549 599.585 284.537 598.323C293.06 587.355 300.895 575.869 307.998 563.931C301.555 577.244 294.998 590.994 294.105 605.763C293.982 607.697 294.451 610.251 296.364 610.526C298.125 610.781 299.316 608.826 300.008 607.188L339.4 513.05" stroke="#171717" stroke-width="3" stroke-linecap="round" stroke-linejoin="round"/>
<path d="M346.793 439.035C354.814 444.755 368.402 448.674 373.216 449.935C387.811 453.762 403.089 454.444 418.101 453.935C454.59 452.683 491.414 445.08 523.301 427.105C555.188 409.13 581.795 380.072 592.533 344.805C582.6 352.205 572.67 359.611 562.742 367.024C537.308 386 510.417 405.59 479.1 409.905C456.2 413.061 433.1 407.687 410.051 405.916C387.002 404.145 361.695 406.822 344.83 422.801C343.091 424.252 341.755 426.127 340.952 428.246C339.73 432.277 342.437 435.921 346.793 439.035Z" stroke="#171717" stroke-width="3" stroke-linecap="round" stroke-linejoin="round"/>
<path d="M416.279 686.017C429.379 679.727 443.038 681.783 456.625 686.943C470.212 692.103 482.525 700.114 495.842 705.956C518.198 715.728 542.809 719.168 566.987 715.9" stroke="#171717" stroke-width="3" stroke-linecap="round" stroke-linejoin="round"/>
<path d="M470.2 758.1C489.518 767.189 512.968 761.123 530.943 749.612C544.836 740.712 556.51 728.92 568.592 717.632C572.144 714.304 575.726 711.027 579.411 707.871C605.65 685.471 637.029 669.663 669.65 658.426" stroke="#171717" stroke-width="3" stroke-linecap="round" stroke-linejoin="round"/>
<path d="M515.669 509.417C514.086 520.142 514.802 531.081 517.769 541.508" stroke="#171717" stroke-width="3" stroke-linecap="round" stroke-linejoin="round"/>
<path d="M510.8 545.834C510.587 561.641 510.37 577.448 510.149 593.254" stroke="#171717" stroke-width="3" stroke-linecap="round" stroke-linejoin="round"/>
<path d="M525.277 571.239C527.313 586.882 529.348 602.532 531.384 618.19" stroke="#171717" stroke-width="3" stroke-linecap="round" stroke-linejoin="round"/>
<path d="M515.139 628.685C513.857 642.741 512.575 656.79 511.292 670.832" stroke="#171717" stroke-width="3" stroke-linecap="round" stroke-linejoin="round"/>
<path d="M505.013 498.384C505.023 498.384 505.044 498.394 505.054 498.394C508.937 499.159 512.94 499.075 516.789 498.15" stroke="#171717" stroke-width="3" stroke-linecap="round" stroke-linejoin="round"/>
<path d="M384.657 822.607C386.815 811.187 456.525 799.594 542.55 796.531C630.194 793.406 701.583 800.307 702 811.941V812.041C702 823.634 631.445 835.541 544.056 838.657C456.402 841.782 385.023 834.881 384.606 823.247C384.597 823.033 384.614 822.818 384.657 822.607Z" stroke="#171717" stroke-width="3" stroke-linecap="round" stroke-linejoin="round"/>
<path d="M714.224 827.167C719.985 825.711 726.031 824.104 730.324 820.003C733.876 816.593 735.657 810.892 733.886 806.526C733.513 805.608 732.982 804.762 732.319 804.026C729.825 801.278 725.927 800.433 722.283 799.751C715.341 798.449 708.393 797.207 701.438 796.026C622.884 782.682 543.016 777.278 463.322 778.357C444.747 778.611 425.968 779.243 408.044 784.149C402.021 785.784 396.162 787.968 390.538 790.672C379.338 796.087 369.317 803.722 362.151 813.808C351.383 828.953 348.177 850.133 357.083 866.438C367.322 885.206 389.754 893.176 410.436 898.581C497.733 921.318 588.725 926.175 677.947 912.86C696.685 910.06 716.654 905.747 729.52 891.844C738.772 881.839 740.96 867.721 743.871 854.409C746.66 841.645 740.797 821.43 734.11 806.428C734.039 806.255 733.957 806.083 733.886 805.92" stroke="#171717" stroke-width="3" stroke-linecap="round" stroke-linejoin="round"/>
<path d="M202.35 415.479C213.05 452.793 223.689 493.108 210.532 529.626C207.353 538.45 202.564 547.096 194.868 552.457C187.172 557.818 176.081 559.074 168.542 553.493C161.003 547.912 159.706 534.861 167.286 529.339C176.886 522.339 191.414 532.933 191.951 544.803C192.488 556.673 184.023 567.024 174.917 574.657C165.811 582.29 155.317 588.821 149.06 598.922C143.773 607.455 142.146 618.644 146.56 627.66C150.974 636.676 162.116 642.407 171.608 639.139C181.1 635.871 186.164 622.755 180.13 614.733" stroke="#171717" stroke-width="3" stroke-linecap="round" stroke-linejoin="round"/>
<path d="M703.226 488.778C698.886 510.078 694.597 532.526 701.326 553.198C708.055 573.87 729.983 591.31 750.81 585.08C760.491 582.18 769.11 571.117 764.11 562.339C759.01 553.401 743.47 556.439 739.533 565.947C735.596 575.455 741.011 586.738 749.246 592.906C757.481 599.074 767.884 601.373 777.895 603.745C787.906 606.117 798.287 608.933 805.935 615.814C818.679 627.28 819.771 649.097 808.793 662.263C803.067 669.131 794.045 673.745 785.215 672.337C776.385 670.929 768.73 662.337 770.07 653.499" stroke="#171717" stroke-width="3" stroke-linecap="round" stroke-linejoin="round"/>
<path d="M236.101 237.628L223.187 228.978" stroke="#171717" stroke-width="3" stroke-linecap="round" stroke-linejoin="round"/>
<path d="M224.163 240.721C224.45 237.719 225.379 234.813 226.887 232.201C228.395 229.59 230.447 227.332 232.904 225.583" stroke="#171717" stroke-width="3" stroke-linecap="round" stroke-linejoin="round"/>
<path d="M183.377 495.069L173.677 486.447" stroke="#171717" stroke-width="3" stroke-linecap="round" stroke-linejoin="round"/>
<path d="M172.219 498.087L180.008 484.215" stroke="#171717" stroke-width="3" stroke-linecap="round" stroke-linejoin="round"/>
<path d="M773.895 542.491C773.709 540.468 773.029 538.521 771.914 536.823C770.798 535.124 769.283 533.726 767.5 532.751" stroke="#171717" stroke-width="3" stroke-linecap="round" stroke-linejoin="round"/>
<path d="M765.324 542.487L776.101 533.865" stroke="#171717" stroke-width="3" stroke-linecap="round" stroke-linejoin="round"/>
<path d="M759.937 720.3L752.393 708.445" stroke="#171717" stroke-width="3" stroke-linecap="round" stroke-linejoin="round"/>
<path d="M748.081 720.3L759.936 710.6" stroke="#171717" stroke-width="3" stroke-linecap="round" stroke-linejoin="round"/>
<path d="M330.159 455.83C311.643 446.657 295.962 432.633 284.787 415.251" stroke="#171717" stroke-width="3" stroke-linecap="round" stroke-linejoin="round"/>
<path d="M624.264 310.807C631.471 270.874 631.557 229.982 624.52 190.02" stroke="#171717" stroke-width="3" stroke-linecap="round" stroke-linejoin="round"/>
<path d="M667.4 155.633L677.2 113.377" stroke="#171717" stroke-width="3" stroke-linecap="round" stroke-linejoin="round"/>
<path d="M682.422 202.032L784.541 115.509" stroke="#171717" stroke-width="3" stroke-linecap="round" stroke-linejoin="round"/>
<path d="M693.166 235.138L732.993 243.972" stroke="#171717" stroke-width="3" stroke-linecap="round" stroke-linejoin="round"/>
<path d="M379.515 730C381.997 714.366 387.486 699.361 395.68 685.815" stroke="#171717" stroke-width="3" stroke-linecap="round" stroke-linejoin="round"/>
<path d="M271.701 189.044L277.071 195.744C277.233 195.947 277.329 196.193 277.347 196.452C277.364 196.711 277.302 196.968 277.168 197.19C277.035 197.413 276.837 197.588 276.6 197.694C276.364 197.8 276.1 197.831 275.846 197.783L267.41 196.183C267.163 196.136 266.908 196.163 266.676 196.261C266.445 196.359 266.248 196.523 266.11 196.733L261.397 203.911C261.255 204.128 261.049 204.296 260.809 204.392C260.568 204.489 260.304 204.509 260.051 204.451C259.798 204.393 259.57 204.258 259.396 204.066C259.222 203.873 259.112 203.632 259.079 203.375L258.001 194.858C257.969 194.61 257.865 194.376 257.701 194.187C257.536 193.998 257.32 193.861 257.078 193.795L248.796 191.531C248.546 191.463 248.322 191.32 248.156 191.121C247.99 190.922 247.889 190.677 247.866 190.419C247.844 190.161 247.901 189.902 248.03 189.677C248.159 189.452 248.354 189.273 248.589 189.162L256.354 185.497C256.58 185.39 256.77 185.218 256.899 185.004C257.028 184.789 257.091 184.541 257.079 184.29L256.673 175.714C256.66 175.455 256.727 175.199 256.865 174.979C257.003 174.76 257.205 174.588 257.443 174.486C257.682 174.385 257.946 174.36 258.2 174.413C258.453 174.466 258.684 174.596 258.862 174.785L264.747 181.037C264.919 181.22 265.141 181.347 265.385 181.404C265.629 181.46 265.884 181.443 266.119 181.354L274.15 178.317C274.393 178.225 274.658 178.21 274.91 178.273C275.162 178.337 275.388 178.476 275.559 178.672C275.729 178.869 275.835 179.113 275.862 179.371C275.889 179.629 275.836 179.89 275.711 180.117L271.583 187.646C271.463 187.865 271.41 188.114 271.431 188.363C271.452 188.612 271.546 188.849 271.701 189.044V189.044Z" fill="#171717"/>
<path d="M671.729 541.254L675.26 545.66C675.367 545.793 675.431 545.956 675.442 546.126C675.454 546.296 675.413 546.465 675.325 546.611C675.237 546.758 675.106 546.873 674.951 546.943C674.795 547.012 674.622 547.032 674.454 547L668.908 545.948C668.746 545.918 668.579 545.936 668.427 546C668.275 546.065 668.146 546.172 668.055 546.31L664.955 551.029C664.862 551.172 664.727 551.282 664.569 551.345C664.411 551.408 664.237 551.422 664.071 551.384C663.905 551.345 663.755 551.257 663.64 551.131C663.526 551.004 663.453 550.846 663.431 550.677L662.717 545.077C662.697 544.914 662.628 544.76 662.52 544.635C662.412 544.511 662.269 544.421 662.11 544.377L656.664 542.889C656.5 542.844 656.353 542.75 656.244 542.619C656.134 542.488 656.068 542.327 656.053 542.157C656.038 541.987 656.076 541.817 656.161 541.669C656.246 541.521 656.374 541.403 656.528 541.33L661.633 538.921C661.782 538.851 661.907 538.738 661.992 538.597C662.077 538.455 662.118 538.292 662.11 538.127L661.843 532.488C661.835 532.318 661.88 532.149 661.97 532.005C662.061 531.861 662.194 531.748 662.351 531.681C662.507 531.615 662.681 531.598 662.848 531.633C663.014 531.668 663.166 531.753 663.283 531.877L667.152 535.988C667.265 536.108 667.411 536.192 667.571 536.229C667.731 536.266 667.898 536.255 668.052 536.197L673.333 534.197C673.493 534.137 673.667 534.127 673.832 534.169C673.997 534.21 674.146 534.302 674.257 534.431C674.369 534.559 674.439 534.719 674.457 534.888C674.475 535.058 674.441 535.229 674.359 535.378L671.645 540.328C671.566 540.473 671.532 540.639 671.546 540.804C671.561 540.969 671.625 541.126 671.729 541.254Z" fill="#171717"/>
<g opacity="0.1">
<path d="M506.11 496.164C501.416 498.848 498.5 502.864 495.048 506.946C491.279 511.567 487.778 516.399 484.562 521.419C478.586 530.4 472.973 539.609 467.722 549.046C457.14 568.127 447.786 587.864 439.716 608.137C422.403 651.275 410.191 696.022 400.416 741.405C397.571 754.615 394.898 767.862 392.309 781.124C391.075 787.44 389.858 793.759 388.657 800.081C387.321 807.081 385.001 814.569 385.649 821.711C386.388 829.864 398.214 835.126 402.595 826.301C405.327 820.794 406.122 815.188 407.237 809.194C408.355 803.183 409.483 797.173 410.622 791.165C412.843 779.465 415.141 767.781 417.516 756.111C422.237 733.119 427.416 710.211 433.495 687.538C444.785 645.452 458.442 604.308 478.627 565.551C484.15 554.947 490.103 544.583 496.484 534.457C499.604 529.529 502.996 524.789 506.163 519.896C509.568 514.635 513.613 509.262 515.27 503.204C515.567 502.014 515.51 500.763 515.106 499.605C514.703 498.447 513.969 497.432 512.997 496.684C512.024 495.936 510.855 495.489 509.631 495.397C508.408 495.304 507.185 495.571 506.111 496.164H506.11Z" fill="#171717"/>
</g>
<g opacity="0.1">
<path d="M285.334 382.141C288.978 390.065 294.844 396.325 300.751 402.625C306.551 408.812 312.623 414.804 318.813 420.594C331.335 432.307 345.724 442.481 360.165 451.663C389.163 470.078 420.72 484.114 453.816 493.315C472.563 498.46 491.711 502.018 511.055 503.953C516.073 504.469 520.383 499.296 520.383 494.624C520.383 489.151 516.088 485.814 511.055 485.296C446.761 478.681 385.138 451.815 335.355 410.796C328.355 405.029 321.428 399.296 314.803 393.084C307.796 386.518 301.481 379.384 293.413 374.066C288.024 370.513 283.081 377.252 285.332 382.146L285.334 382.141Z" fill="#171717"/>
</g>
</g>
<defs>
<linearGradient id="paint0_linear_385_971" x1="545.99" y1="657.712" x2="545.99" y2="796.022" gradientUnits="userSpaceOnUse">
<stop stop-color="#FF9A34"/>
<stop offset="1" stop-color="#EB6421"/>
</linearGradient>
<linearGradient id="paint1_linear_385_971" x1="470.635" y1="344.8" x2="470.635" y2="498.905" gradientUnits="userSpaceOnUse">
<stop stop-color="#FF9A34"/>
<stop offset="1" stop-color="#EB6421"/>
</linearGradient>
<linearGradient id="paint2_linear_385_971" x1="543.156" y1="778.22" x2="543.156" y2="822.608" gradientUnits="userSpaceOnUse">
<stop stop-color="#FF9A34"/>
<stop offset="1" stop-color="#EB6421"/>
</linearGradient>
<linearGradient id="paint3_linear_385_971" x1="543.302" y1="795.779" x2="543.302" y2="839.41" gradientUnits="userSpaceOnUse">
<stop stop-color="#FF9A34"/>
<stop offset="1" stop-color="#EB6421"/>
</linearGradient>
<clipPath id="clip0_385_971">
<rect width="676" height="884" fill="white" transform="translate(142 38)"/>
</clipPath>
</defs>
</svg>
