<svg width="960" height="960" viewBox="0 0 960 960" fill="none" xmlns="http://www.w3.org/2000/svg">
<g clip-path="url(#clip0_385_972)">
<path fill-rule="evenodd" clip-rule="evenodd" d="M399.956 472.221C399.944 470.806 400.221 469.404 400.77 468.101C401.447 467.861 402.159 467.732 402.878 467.719C404.233 467.7 405.551 468.158 406.602 469.013C407.652 469.868 408.369 471.065 408.627 472.396C408.96 475.085 406.385 477.841 403.727 477.341C401.481 476.909 400.039 474.508 399.956 472.221ZM412.927 549.249C416.903 545.427 424.033 542.686 429.533 544.015V544.016C430.622 544.28 431.673 544.678 432.665 545.2L432.85 544.85C444.847 514.554 448.133 481.508 442.338 449.444C439.66 434.743 434.694 419.769 423.98 409.369C409.259 395.077 385.101 392.505 366.805 401.777C348.509 411.049 336.528 430.818 334.869 451.267C333.21 471.716 341.205 492.361 354.731 507.783C363.401 517.658 374.055 525.404 384.726 533.162C393.124 539.267 401.532 545.38 408.991 552.545L410.197 552.916C410.869 551.533 411.795 550.289 412.927 549.249ZM382.433 484.14C381.702 485.507 380.67 486.691 379.414 487.601C378.695 487.072 378.08 486.416 377.601 485.664C375.871 482.945 377.23 478 380.383 478.607C382.608 479.04 383.381 482.079 382.433 484.14ZM400.856 408.592C400.095 408.265 399.213 408.616 398.885 409.378C398.558 410.139 398.91 411.021 399.671 411.348C410.764 416.114 419.878 424.552 425.484 435.244C431.09 445.937 432.846 458.233 430.457 470.067C430.293 470.879 430.819 471.67 431.631 471.834C432.443 471.998 433.234 471.473 433.398 470.661C435.923 458.151 434.067 445.154 428.141 433.851C422.215 422.549 412.581 413.63 400.856 408.592Z" fill="url(#paint0_linear_385_972)"/>
<path d="M864.375 456.789C865.622 459.426 865.282 462.496 864.829 465.371C862.604 479.278 853.847 519.991 836.406 522.701C835.149 513.831 841.289 500.582 843.813 491.815C847.027 480.615 850.519 469.496 854.29 458.458C854.89 456.696 855.609 454.79 857.216 453.832C859.719 452.349 863.139 454.162 864.375 456.789Z" fill="url(#paint1_linear_385_972)"/>
<path d="M437.455 548.801C442.369 553.664 446.222 561.256 449.467 568.21C450.292 569.982 451.074 571.71 451.837 573.351L450.982 573.751C446.274 584.392 441.563 595.034 436.848 605.676L436.683 605.944C432.346 603.265 429.083 599.155 426.515 594.622C425.453 592.733 424.497 590.786 423.651 588.791C422.765 586.731 421.941 584.629 421.127 582.528L421.333 582.445C426.092 571.103 431.363 559.994 437.146 549.119L437.455 548.801Z" fill="url(#paint2_linear_385_972)"/>
<path d="M408.63 472.4C408.959 475.089 406.384 477.85 403.73 477.345C401.484 476.913 400.042 474.512 399.959 472.225C399.948 470.811 400.225 469.409 400.773 468.105C401.452 467.865 402.165 467.736 402.885 467.723C404.239 467.706 405.556 468.164 406.607 469.019C407.657 469.874 408.373 471.071 408.63 472.4Z" fill="url(#paint3_linear_385_972)"/>
<path d="M380.382 478.608C382.607 479.041 383.382 482.08 382.432 484.141C381.701 485.509 380.669 486.692 379.413 487.602C378.694 487.074 378.079 486.417 377.6 485.665C375.87 482.946 377.229 478 380.382 478.608Z" fill="url(#paint4_linear_385_972)"/>
<path d="M84.3366 621.311C87.7466 623.111 97.8736 630.411 106.352 638.464C115.778 647.427 123.175 657.327 117.097 661.715C109.937 666.887 98.5846 656.554 93.3816 652.315C85.8412 646.192 79.4116 638.816 74.3746 630.511C72.7576 627.832 71.2946 624.371 72.9636 621.711C73.5807 620.86 74.4118 620.189 75.3725 619.763C76.3332 619.338 77.3893 619.175 78.4336 619.29C80.5212 619.542 82.5325 620.23 84.3366 621.311V621.311Z" fill="url(#paint5_linear_385_972)"/>
<path d="M214.4 369.058C212 371.479 209.444 373.622 208.878 374.786C206.137 380.411 213.078 390.63 216.831 397.017C217.377 397.955 217.861 398.81 218.231 399.562C219.52 402.471 221.223 405.177 223.289 407.597C224.196 408.588 225.257 409.426 226.431 410.08C226.441 410.08 226.441 410.09 226.452 410.09C228.113 410.975 229.965 411.441 231.847 411.448C233.729 411.456 235.584 411.004 237.252 410.132C238.905 409.234 240.323 407.959 241.391 406.411C242.46 404.863 243.148 403.085 243.402 401.221C243.969 396.863 242.135 392.588 240.343 388.58C240.096 388.024 239.843 387.48 239.601 386.922C239.333 386.303 239.055 385.685 238.777 385.067C236.572 380.122 234.372 375.173 232.177 370.222L229.177 363.485C229.177 363.474 229.167 363.474 229.167 363.464C228.611 363.917 228.044 364.371 227.478 364.814C225.839 366.172 224.04 367.324 222.121 368.244C219.725 369.415 216.992 369.703 214.405 369.058" stroke="#171717" stroke-width="3" stroke-linecap="round" stroke-linejoin="round"/>
<path d="M214.399 369.058C214.203 369.007 214.007 368.945 213.811 368.873C211.143 367.873 209.031 365.164 209.299 362.331C209.567 359.498 212.678 357.108 215.357 358.076C221.799 360.4 218.312 365.1 214.399 369.058Z" stroke="#171717" stroke-width="3" stroke-linecap="round" stroke-linejoin="round"/>
<path d="M163.373 317.827C175.106 333.712 186.844 349.604 198.585 365.504" stroke="#171717" stroke-width="3" stroke-linecap="round" stroke-linejoin="round"/>
<path d="M163.373 317.827C162.538 317.112 161.876 316.217 161.436 315.21C162.086 316.086 162.724 316.951 163.373 317.827Z" stroke="#171717" stroke-width="3" stroke-linecap="round" stroke-linejoin="round"/>
<path d="M227.6 365.206C227.559 365.072 227.518 364.949 227.477 364.815C219.744 339.054 209.825 314.002 197.828 289.93C198.087 299.046 196.229 308.098 192.399 316.375C188.83 310.503 183.896 305.58 178.017 302.025C180.917 307.011 180.438 314.078 176.08 317.869C174.276 319.313 172.033 320.096 169.723 320.088C167.412 320.081 165.174 319.283 163.38 317.828" stroke="#171717" stroke-width="3" stroke-linecap="round" stroke-linejoin="round"/>
<path d="M409.485 558.037C409.948 561.128 411.803 564.236 413.945 567.349C417.057 572.016 419.086 577.27 421.126 582.524C421.94 584.624 422.764 586.724 423.65 588.787C424.496 590.783 425.452 592.729 426.514 594.618C429.079 599.151 432.345 603.261 436.682 605.94C437.158 606.248 437.65 606.53 438.155 606.785C445.14 610.39 455.163 608.959 458.893 602.037C462.632 595.083 458.779 586.645 454.968 579.737C453.979 577.937 452.938 575.749 451.836 573.349C451.073 571.711 450.291 569.98 449.466 568.208C446.221 561.254 442.366 553.663 437.454 548.8C436.723 548.067 435.941 547.386 435.116 546.761C434.345 546.172 433.525 545.652 432.664 545.205C431.673 544.682 430.621 544.284 429.532 544.02C424.032 542.691 416.902 545.431 412.926 549.253C411.794 550.294 410.868 551.538 410.196 552.921C409.459 554.518 409.212 556.298 409.485 558.037Z" stroke="#171717" stroke-width="3" stroke-linecap="round" stroke-linejoin="round"/>
<path d="M379.413 487.601C378.847 488.054 378.27 488.487 377.713 488.94C375.941 490.362 374.213 492.24 374.213 494.503C374.213 496.766 375.923 498.634 377.499 500.272C388.897 512.17 398.421 525.731 405.747 540.491" stroke="#171717" stroke-width="3" stroke-linecap="round" stroke-linejoin="round"/>
<path d="M379.413 487.601C378.694 487.073 378.079 486.416 377.6 485.664C375.87 482.945 377.229 478 380.382 478.607C382.607 479.04 383.382 482.079 382.432 484.14C381.701 485.508 380.669 486.691 379.413 487.601V487.601Z" stroke="#171717" stroke-width="3" stroke-linecap="round" stroke-linejoin="round"/>
<path d="M400.77 468.101C398.896 468.789 397.322 470.112 396.32 471.84C393.734 476.24 394.713 482.214 391.612 486.263C388.83 489.899 382.979 490.263 379.412 487.602" stroke="#171717" stroke-width="3" stroke-linecap="round" stroke-linejoin="round"/>
<path d="M400.769 468.1C400.221 469.404 399.944 470.806 399.955 472.22C400.038 474.507 401.48 476.908 403.726 477.34C406.384 477.84 408.959 475.084 408.626 472.395C408.369 471.065 407.652 469.868 406.601 469.013C405.55 468.158 404.232 467.7 402.877 467.718C402.159 467.731 401.447 467.86 400.769 468.1V468.1Z" stroke="#171717" stroke-width="3" stroke-linecap="round" stroke-linejoin="round"/>
<path d="M425.577 542.306C422.6 517.922 419.626 493.541 416.656 469.163C416.11 464.712 414.472 459.139 410.011 458.737C406.211 458.397 403.5 462.26 401.842 465.691C401.461 466.474 401.09 467.277 400.77 468.102" stroke="#171717" stroke-width="3" stroke-linecap="round" stroke-linejoin="round"/>
<path d="M653.157 606.486C653.038 612.295 653.275 618.106 653.867 623.886C654.355 628.698 655.091 633.481 656.072 638.216C656.093 638.362 656.124 638.506 656.165 638.648C656.525 640.441 656.937 642.223 657.38 643.995C657.906 646.128 658.864 648.631 661.017 649.084C663.489 649.599 665.457 647.055 666.498 644.747C666.621 644.459 666.755 644.17 666.868 643.872C669.068 638.21 670.314 632.222 670.556 626.152C670.804 622.413 670.856 618.652 670.886 614.923C671.014 612.959 670.787 610.987 670.217 609.103C670.015 608.57 669.753 608.061 669.434 607.588C667.991 605.507 664.561 604.642 662.943 606.599" stroke="#171717" stroke-width="3" stroke-linecap="round" stroke-linejoin="round"/>
<path d="M647.058 566.763C644.458 567.948 640.758 567.422 639.125 569.812C637.333 572.46 639.795 575.818 641.866 578.249C647.118 584.44 650.655 591.899 652.126 599.883" stroke="#171717" stroke-width="3" stroke-linecap="round" stroke-linejoin="round"/>
<path d="M657.099 555.522C655.896 556.2 654.875 557.158 654.122 558.315C652.803 560.252 651.979 562.514 650.516 564.341C649.635 565.466 648.442 566.305 647.086 566.753C647.075 566.753 647.065 566.763 647.055 566.763C646.18 567.039 645.239 567.021 644.376 566.711C643.605 566.421 642.949 565.891 642.504 565.199C642.058 564.507 641.848 563.69 641.903 562.869C641.959 562.048 642.278 561.267 642.812 560.642C643.347 560.016 644.069 559.579 644.871 559.397C645.673 559.214 646.513 559.294 647.266 559.626C648.019 559.959 648.645 560.524 649.051 561.24C649.456 561.956 649.621 562.784 649.519 563.6C649.418 564.417 649.056 565.179 648.487 565.773C648.085 566.184 647.61 566.516 647.087 566.753" stroke="#171717" stroke-width="3" stroke-linecap="round" stroke-linejoin="round"/>
<path d="M664.664 600.562C667.443 582.656 668.292 564.504 667.198 546.416C664.272 545.231 661.419 548.136 659.606 550.716C658.467 552.138 657.617 553.768 657.106 555.516V555.526C656.977 556.125 656.946 556.741 657.013 557.35C657.313 559.771 660.496 561.738 662.247 560.05C663.936 558.433 662.226 555.218 659.898 554.94C658.93 554.845 657.957 555.047 657.106 555.517" stroke="#171717" stroke-width="3" stroke-linecap="round" stroke-linejoin="round"/>
<path d="M669.463 600.264C677.246 583.004 682.546 564.729 685.205 545.983C686.105 539.575 686.647 532.817 684.185 526.832C681.901 521.566 677.72 517.352 672.472 515.026C662.788 510.606 650.807 512.759 642.4 519.28C633.993 525.801 629.049 536.165 627.823 546.745C626.597 557.325 628.843 568.07 632.851 577.929C635.204 583.575 637.99 589.031 641.185 594.247C643.513 598.121 646.006 601.912 648.54 605.662" stroke="#171717" stroke-width="3" stroke-linecap="round" stroke-linejoin="round"/>
<path d="M432.85 544.85C444.847 514.555 448.133 481.509 442.338 449.444C439.66 434.744 434.694 419.774 423.98 409.369C409.259 395.081 385.101 392.515 366.805 401.777C348.509 411.039 336.538 430.828 334.869 451.267C333.2 471.706 341.205 492.361 354.731 507.783C370.225 525.431 392.055 536.283 408.991 552.545" stroke="#171717" stroke-width="3" stroke-linecap="round" stroke-linejoin="round"/>
<path d="M229.067 363.619C229.104 363.577 229.138 363.532 229.168 363.485C239.913 350.412 242.458 332.26 240.902 315.406C240.802 314.252 240.665 313.098 240.521 311.944C237.709 289.558 227.829 267.656 210.604 253.151C192.494 237.905 165.812 232.166 144.198 241.83C131.877 247.341 121.823 257.416 115.456 269.325C109.089 281.234 106.267 294.864 106.411 308.37C106.658 332.62 117.052 357.242 136.358 371.922C155.664 386.602 184.005 389.641 204.578 376.815" stroke="#171717" stroke-width="3" stroke-linecap="round" stroke-linejoin="round"/>
<path d="M226.368 410.174L226.43 410.081C231.125 402.851 235.215 395.247 238.659 387.345" stroke="#171717" stroke-width="3" stroke-linecap="round" stroke-linejoin="round"/>
<path d="M216.231 398.078C216.431 397.728 216.623 397.368 216.831 397.017C221.786 388.147 226.748 379.28 231.717 370.417" stroke="#171717" stroke-width="3" stroke-linecap="round" stroke-linejoin="round"/>
<path d="M436.848 605.672C441.556 595.03 446.267 584.388 450.982 573.747" stroke="#171717" stroke-width="3" stroke-linecap="round" stroke-linejoin="round"/>
<path d="M421.332 582.441C426.091 571.099 431.362 559.991 437.145 549.115" stroke="#171717" stroke-width="3" stroke-linecap="round" stroke-linejoin="round"/>
<path d="M656.865 638.051C661.35 634.647 665.307 630.599 668.609 626.039C668.475 626.139 668.342 626.255 668.209 626.358" stroke="#171717" stroke-width="3" stroke-linecap="round" stroke-linejoin="round"/>
<path d="M654.969 623.773C659.256 618.402 664.118 613.518 669.469 609.206" stroke="#171717" stroke-width="3" stroke-linecap="round" stroke-linejoin="round"/>
<path d="M708.817 633.158C714.916 633.136 721.006 632.685 727.041 631.808C737.394 630.201 747.655 626.719 755.907 620.27C758.651 618.315 760.884 615.728 762.418 612.729C763.818 609.69 763.983 605.919 762.17 603.097C759.512 598.935 753.785 598.152 748.86 598.481C729.915 599.749 712.824 611.153 693.9 612.822C709.688 606.098 724.806 597.899 739.053 588.334C746.141 583.502 753.136 578.063 757.39 570.615C759.378 567.153 760.419 562.136 757.308 559.643C754.629 557.511 750.673 558.706 747.624 560.251C741.165 563.517 735.375 567.926 729.616 572.304C717.15 581.803 704.681 591.298 692.21 600.789C707.117 587.289 722.364 573.376 731.41 555.43C732.669 553.201 733.494 550.754 733.841 548.218C734.005 546.949 733.87 545.659 733.446 544.452C733.022 543.245 732.322 542.153 731.4 541.265C730.317 540.443 729.048 539.9 727.706 539.682C726.363 539.465 724.988 539.58 723.7 540.018C721.132 540.917 718.748 542.275 716.664 544.026C702.705 554.575 690.464 567.195 678.564 580.01" stroke="#171717" stroke-width="3" stroke-linecap="round" stroke-linejoin="round"/>
<path d="M708.817 633.158C704.459 632.858 700.029 632.958 695.672 633.075C700.05 633.147 704.438 633.219 708.817 633.158Z" stroke="#171717" stroke-width="3" stroke-linecap="round" stroke-linejoin="round"/>
<path d="M668.799 644.16C677.566 648.126 686.456 652.123 695.934 653.813C705.412 655.503 715.693 654.647 723.801 649.445C726.448 647.745 729.044 645.056 728.632 641.935C728.232 638.935 725.253 637.035 722.441 635.929C718.07 634.313 713.477 633.378 708.822 633.158" stroke="#171717" stroke-width="3" stroke-linecap="round" stroke-linejoin="round"/>
<path d="M621 612.811C606.647 611.02 592.095 611.668 577.959 614.727C573.776 615.634 569.159 617.127 567.224 620.94C565.124 625.081 567.194 630.232 570.366 633.611C575.445 639.03 583.028 641.564 590.445 641.986C597.862 642.408 605.238 640.925 612.512 639.411C619.786 637.897 627.14 636.341 634.558 636.588C623.947 640.05 613.243 643.552 603.59 649.167C593.937 654.782 585.284 662.724 580.813 672.954C579.603 675.479 578.95 678.233 578.896 681.031C578.881 682.427 579.165 683.81 579.728 685.088C580.291 686.365 581.121 687.508 582.162 688.438C585.84 691.438 591.279 690.446 595.709 688.767C608.195 684.028 618.652 675.2 628.428 666.103C637.803 657.389 646.803 648.289 655.428 638.803" stroke="#171717" stroke-width="3" stroke-linecap="round" stroke-linejoin="round"/>
<path d="M621 612.812C625.543 613.719 630.1 614.553 634.671 615.264C630.164 614.191 625.599 613.372 621 612.812Z" stroke="#171717" stroke-width="3" stroke-linecap="round" stroke-linejoin="round"/>
<path d="M640.743 594.516C625.918 587.916 610.229 581.165 594.075 582.762C590.418 583.133 586.689 583.967 583.67 586.079C580.651 588.191 578.47 591.766 578.828 595.423C579.168 598.823 581.62 601.717 584.546 603.468C587.472 605.219 590.846 606.034 594.178 606.817C603.1 608.908 612.021 611.009 621.004 612.817" stroke="#171717" stroke-width="3" stroke-linecap="round" stroke-linejoin="round"/>
<path d="M523.116 444.076C528.261 427.412 531.181 410.14 531.8 392.711C532.027 384.645 530.739 375.002 523.507 371.397C517.862 368.597 510.743 371.036 506.282 375.497C501.821 379.958 499.442 386.036 497.175 391.918C477.406 443.201 457.633 494.491 437.857 545.787" stroke="#171717" stroke-width="3" stroke-linecap="round" stroke-linejoin="round"/>
<path d="M523.116 444.076C513.047 452.792 503.517 462.112 494.579 471.984C486.461 480.937 478.55 490.847 476.211 502.705C475.758 505.023 475.583 507.629 476.973 509.524C479.25 512.646 484.144 511.966 487.564 510.173C496.702 505.404 502.048 495.73 506.499 486.438C513.125 472.769 518.681 458.605 523.116 444.076V444.076Z" stroke="#171717" stroke-width="3" stroke-linecap="round" stroke-linejoin="round"/>
<path d="M535.281 494.155C538.238 492.033 541.147 489.849 544.007 487.603C562.818 472.82 579.662 454.967 590.417 433.59C592.374 429.706 594.146 425.616 594.466 421.29C594.786 416.964 593.425 412.29 590.046 409.556C583.752 404.477 574.439 408.124 567.454 412.214C551.729 421.453 536.887 432.119 523.115 444.077" stroke="#171717" stroke-width="3" stroke-linecap="round" stroke-linejoin="round"/>
<path d="M535.281 494.154C517.243 503.137 500.193 514.737 483.545 526.183C501.161 516.128 518.839 506.012 535.281 494.154Z" stroke="#171717" stroke-width="3" stroke-linecap="round" stroke-linejoin="round"/>
<path d="M449.828 568.04C477.921 566.031 506.313 563.971 533.191 555.534C560.069 547.097 585.679 531.551 600.833 507.805C604.738 501.686 607.952 493.959 604.892 487.376C602.852 482.976 598.309 480.134 593.581 479.076C588.853 478.018 583.907 478.509 579.127 479.292C563.736 481.837 549.221 487.215 535.282 494.158" stroke="#171717" stroke-width="3" stroke-linecap="round" stroke-linejoin="round"/>
<path d="M360.283 577.795C347.194 581.963 334.528 587.358 322.454 593.907C307.063 602.262 291.854 613.491 285.821 629.933C284.221 634.28 283.492 639.627 286.48 643.171C288.849 645.983 292.991 646.766 296.607 646.056C300.223 645.346 303.447 643.387 306.589 641.456C335.589 623.685 364.582 605.921 393.568 588.164C370.258 609.557 351.738 635.64 339.226 664.7C337.186 669.439 335.692 675.836 339.761 679.009C343.254 681.739 348.353 679.937 352.206 677.742C368.406 668.501 380.969 654.048 392.095 639.069C403.221 624.09 413.327 608.246 426.236 594.769" stroke="#171717" stroke-width="3" stroke-linecap="round" stroke-linejoin="round"/>
<path d="M360.283 577.795C368.825 576.247 377.246 574.096 385.483 571.356C376.962 572.996 368.547 575.147 360.283 577.795V577.795Z" stroke="#171717" stroke-width="3" stroke-linecap="round" stroke-linejoin="round"/>
<path d="M407.455 558.377C389.889 547.548 370.305 540.403 349.893 537.377C329.481 534.35 308.667 535.505 288.715 540.771C279.33 543.295 268.792 548.322 267.143 557.913C265.843 565.444 271.068 572.913 277.785 576.57C284.502 580.227 292.393 580.876 300.027 581.227C320.147 582.144 340.513 581.427 360.283 577.796" stroke="#171717" stroke-width="3" stroke-linecap="round" stroke-linejoin="round"/>
<path d="M238.422 385.15C238.535 385.119 238.659 385.098 238.772 385.067C264.351 379.067 289.828 372.056 313.708 361.136C337.701 350.164 360.159 335.062 377.075 314.808C379.393 312.037 381.721 308.308 380.145 305.052C378.527 301.704 373.974 301.313 370.265 301.581C351.665 302.961 333.745 309.472 317.283 318.218C300.821 326.964 285.635 337.918 270.522 348.835C287.871 333.846 303.354 316.835 318.591 299.695C333.323 283.109 348.353 265.411 353.298 243.787C353.71 241.974 354.03 239.996 353.185 238.337C352 236.009 348.837 235.278 346.324 236.05C343.811 236.822 341.832 238.687 339.957 240.521C311.586 268.347 288.157 300.715 264.867 332.921C280.227 299.421 293.228 263.775 292.967 226.921C292.926 221.275 292.524 215.434 289.938 210.421C287.352 205.408 282.088 201.376 276.464 201.87C271.92 202.262 268.006 205.497 265.626 209.381C263.246 213.265 262.144 217.787 261.093 222.227C254.047 251.917 247.698 281.758 242.045 311.751" stroke="#171717" stroke-width="3" stroke-linecap="round" stroke-linejoin="round"/>
<path d="M151.412 461.538C146.255 470.316 141.734 479.454 137.885 488.879C137.02 490.971 136.247 493.536 137.597 495.359C139.359 497.718 143.047 496.859 145.715 495.617C163.715 487.149 177.403 471.644 188.931 455.429C200.305 439.41 210.174 422.229 223.288 407.597C223.443 407.402 223.618 407.216 223.788 407.031" stroke="#171717" stroke-width="3" stroke-linecap="round" stroke-linejoin="round"/>
<path d="M151.412 461.538C173.354 449.793 191.706 432.324 204.518 410.987C191.713 411.862 181.318 421.433 172.994 431.199C164.929 440.663 157.707 450.815 151.412 461.538V461.538Z" stroke="#171717" stroke-width="3" stroke-linecap="round" stroke-linejoin="round"/>
<path d="M173.89 398.079C145.045 391.002 112.718 400.552 92.3411 422.165C89.7551 424.916 87.4681 429.696 90.4761 431.993C91.8151 433.013 93.6701 432.951 95.3491 432.817C129.5 430.026 161.672 416.19 192.784 401.829C166.308 416.345 139.008 431.561 120.877 455.708C117.745 459.87 115.067 466.154 118.786 469.791C121.598 472.531 126.203 471.717 129.953 470.543C137.369 468.213 144.553 465.2 151.412 461.543" stroke="#171717" stroke-width="3" stroke-linecap="round" stroke-linejoin="round"/>
<path d="M645.162 248.011C644.791 245.59 644.362 243.169 643.854 240.768C643.287 238.068 642.587 235.278 640.835 233.135C639.083 230.992 636.014 229.694 633.49 230.817C630.4 232.177 629.627 236.122 629.349 239.481C627.807 258.375 628.997 277.392 632.882 295.945C633.851 300.55 637.508 308.318 642.947 303.61C645.347 301.539 645.832 294.266 646.028 288.724C646.12 286.447 646.151 284.469 646.254 283.243C647.267 271.497 646.901 259.672 645.162 248.011V248.011Z" stroke="#171717" stroke-width="3" stroke-linecap="round" stroke-linejoin="round"/>
<path d="M670.618 248.577C683.986 226.245 689.536 200.096 686.391 174.259C686.274 173.367 685.865 172.54 685.228 171.904C684.591 171.269 683.762 170.863 682.869 170.747C681.977 170.632 681.072 170.815 680.295 171.268C679.517 171.721 678.912 172.418 678.571 173.25L648.15 247.825" stroke="#171717" stroke-width="3" stroke-linecap="round" stroke-linejoin="round"/>
<path d="M670.617 248.577C667.48 252.392 664.646 256.445 662.139 260.7C665.232 256.853 668.064 252.803 670.617 248.577V248.577Z" stroke="#171717" stroke-width="3" stroke-linecap="round" stroke-linejoin="round"/>
<path d="M656.783 276.4C657.37 276.091 657.947 275.771 658.524 275.442C675.967 265.574 690.244 250.95 699.69 233.276C700.109 232.478 700.252 231.563 700.096 230.674C699.94 229.786 699.493 228.975 698.827 228.367C698.16 227.76 697.311 227.39 696.412 227.316C695.514 227.243 694.616 227.469 693.859 227.96C685.065 233.551 677.219 240.51 670.618 248.574" stroke="#171717" stroke-width="3" stroke-linecap="round" stroke-linejoin="round"/>
<path d="M646.4 288.734C667.436 291.413 689.431 284.129 705.038 269.84C705.653 269.264 706.073 268.511 706.243 267.685C706.412 266.86 706.322 266.003 705.984 265.231C705.647 264.459 705.079 263.81 704.358 263.374C703.637 262.938 702.799 262.735 701.958 262.794C686.746 263.873 671.938 268.186 658.525 275.445" stroke="#171717" stroke-width="3" stroke-linecap="round" stroke-linejoin="round"/>
<path d="M624.62 248.68C604.126 238.491 581.693 232.794 558.82 231.971C555.76 231.857 552.536 231.871 549.96 233.743C549.133 234.299 548.476 235.074 548.063 235.982C547.65 236.889 547.498 237.894 547.622 238.883C548.168 242.056 551.65 243.334 554.637 244.147C574.211 249.453 593.789 254.766 613.369 260.085C597.936 261.65 571.203 266.018 560.169 272.076C559.523 272.43 559.014 272.99 558.722 273.667C558.43 274.344 558.372 275.099 558.558 275.812C558.744 276.525 559.162 277.156 559.747 277.604C560.332 278.053 561.049 278.294 561.786 278.288L612.399 278.01C594.699 285.983 575.117 300.437 566.236 315.91C565.734 316.773 565.508 317.769 565.588 318.765C565.667 319.76 566.05 320.708 566.683 321.48C567.316 322.252 568.17 322.813 569.131 323.086C570.091 323.36 571.112 323.333 572.057 323.01C592.701 315.786 612.074 305.345 629.457 292.073" stroke="#171717" stroke-width="3" stroke-linecap="round" stroke-linejoin="round"/>
<path d="M864.829 465.371C865.282 462.496 865.622 459.426 864.375 456.789C863.128 454.152 859.719 452.349 857.216 453.832C855.609 454.79 854.887 456.696 854.29 458.458C850.519 469.491 847.026 480.61 843.813 491.815C841.289 500.582 835.149 513.831 836.406 522.701C853.847 519.991 862.604 479.278 864.829 465.371Z" stroke="#171717" stroke-width="3" stroke-linecap="round" stroke-linejoin="round"/>
<path d="M844.854 474.879C841.908 452.863 833.645 431.896 820.779 413.789C817.946 409.812 813.679 405.537 808.963 406.814C804.347 408.061 802.73 413.758 802.514 418.538C801.566 439.75 813.475 461.038 832.049 471.315C827.448 469.341 822.47 468.4 817.466 468.559C812.462 468.717 807.554 469.971 803.087 472.232C798.62 474.493 794.703 477.707 791.613 481.646C788.522 485.585 786.333 490.153 785.2 495.03C784.6 497.595 784.366 500.51 785.9 502.643C788.331 506.022 793.451 505.496 797.448 504.322C810.73 500.42 822.953 493.555 833.196 484.244" stroke="#171717" stroke-width="3" stroke-linecap="round" stroke-linejoin="round"/>
<path d="M874.534 493.764C882.683 492.342 891.306 493.671 897.662 498.822C905.962 505.539 908.201 519.56 900.598 527.059C893.788 533.786 881.756 532.87 874.411 526.73C867.066 520.59 863.892 510.587 863.697 501.006" stroke="#171717" stroke-width="3" stroke-linecap="round" stroke-linejoin="round"/>
<path d="M874.534 493.764C872.134 494.564 869.703 495.247 867.24 495.824C869.594 494.887 872.038 494.197 874.534 493.764V493.764Z" stroke="#171717" stroke-width="3" stroke-linecap="round" stroke-linejoin="round"/>
<path d="M863.738 484.223C876.992 471.613 892.067 461.069 908.458 452.946C912.167 451.113 917.74 449.969 919.523 453.709C920.656 456.099 919.244 458.87 917.761 461.054C907.308 476.383 892.127 487.87 874.534 493.763" stroke="#171717" stroke-width="3" stroke-linecap="round" stroke-linejoin="round"/>
<path d="M84.3365 621.311C82.5332 620.231 80.523 619.543 78.4365 619.292C77.3922 619.177 76.3361 619.34 75.3754 619.765C74.4147 620.19 73.5836 620.862 72.9665 621.713C71.2975 624.371 72.7605 627.832 74.3775 630.513C79.414 638.82 85.8437 646.197 93.3845 652.322C98.5845 656.556 109.94 666.889 117.1 661.722C123.178 657.334 115.781 647.434 106.355 638.471C97.8735 630.408 87.7465 623.114 84.3365 621.311Z" stroke="#171717" stroke-width="3" stroke-linecap="round" stroke-linejoin="round"/>
<path d="M116.756 626.3C120.372 618.179 122.089 609.341 121.779 600.457C121.468 591.573 119.138 582.876 114.964 575.027C113.243 571.854 110.637 568.517 107.031 568.466C104.394 568.424 102.014 570.289 100.731 572.597C99.5753 574.98 98.9166 577.573 98.7953 580.22C97.1098 597.223 99.4605 614.384 105.656 630.308C105.326 629.237 104.986 628.165 104.646 627.094" stroke="#171717" stroke-width="3" stroke-linecap="round" stroke-linejoin="round"/>
<path d="M116.757 626.301C116.397 627.022 116.047 627.753 115.706 628.495C116.077 627.772 116.427 627.041 116.757 626.301Z" stroke="#171717" stroke-width="3" stroke-linecap="round" stroke-linejoin="round"/>
<path d="M105.699 638.638C105.916 638.587 106.132 638.525 106.348 638.463C125.906 633.157 143.116 621.44 155.22 605.188C156.902 603.175 158.11 600.809 158.754 598.265C159.248 595.69 158.496 592.723 156.312 591.265C153.16 589.165 148.936 591.065 145.794 593.181C133.405 601.514 123.397 612.928 116.756 626.3" stroke="#171717" stroke-width="3" stroke-linecap="round" stroke-linejoin="round"/>
<path d="M84.3779 648.106C69.4658 655.37 57.2655 667.209 49.5579 681.896C48.2573 684.091 47.4455 686.54 47.1779 689.076C47.0586 690.345 47.2803 691.622 47.82 692.776C48.3598 693.929 49.198 694.918 50.2479 695.639C54.5129 698.132 59.5299 694.062 62.7339 690.302C71.3052 680.196 79.4436 669.743 87.1489 658.943C76.861 676.266 73.5258 696.846 77.8159 716.531C78.2689 718.571 79.1239 720.919 81.1429 721.455C84.1429 722.255 86.1809 718.499 86.9429 715.48C91.3438 698.131 93.7735 680.341 94.1859 662.446" stroke="#171717" stroke-width="3" stroke-linecap="round" stroke-linejoin="round"/>
<path d="M334.59 762.529C338.927 764.96 343.13 765.729 346.29 763.116C355.963 755.091 326.51 737.475 320.525 734.405C318.341 733.282 315.508 732.313 313.602 733.859C311.232 735.785 312.51 739.607 314.148 742.172C316.088 745.051 318.227 747.791 320.548 750.372C320.62 750.454 320.693 750.526 320.754 750.598C324.71 755.029 329.738 759.819 334.59 762.529Z" stroke="#171717" stroke-width="3" stroke-linecap="round" stroke-linejoin="round"/>
<path d="M339.009 718.469C340.575 710.382 340.75 701.882 338.257 694.021C334.6 695.309 333.014 699.544 332.138 703.315C330.593 709.98 326.719 725.614 330.222 731.984C334.765 740.256 338.299 722.188 339.009 718.469Z" stroke="#171717" stroke-width="3" stroke-linecap="round" stroke-linejoin="round"/>
<path d="M370.977 713.76V713.749" stroke="#171717" stroke-width="3" stroke-linecap="round" stroke-linejoin="round"/>
<path d="M370.976 713.761C370.976 714.77 354.524 724.897 352.69 726.401C347.344 730.759 340.513 735.889 336.918 741.792C343.058 746.376 358.13 735.941 362.807 731.82C367.968 727.277 371.718 720.591 370.976 713.761Z" stroke="#171717" stroke-width="3" stroke-linecap="round" stroke-linejoin="round"/>
<path d="M319.889 752.165C320.178 751.64 320.466 751.125 320.754 750.599C320.868 750.399 320.981 750.199 321.084 749.999C320.909 750.122 320.724 750.246 320.548 750.37C307.343 759.362 296.008 770.83 287.17 784.139C294.691 785.705 302.396 782.213 308.57 777.628C314.744 773.043 320.057 767.316 326.619 763.319C318.647 771.174 312.609 780.773 308.982 791.361C308.344 793.236 307.911 795.636 309.425 796.903C311.3 798.48 314.092 796.769 315.802 795.008C324.238 786.276 329.883 775.23 332.017 763.278C332.817 763.134 333.624 762.978 334.428 762.825" stroke="#171717" stroke-width="3" stroke-linecap="round" stroke-linejoin="round"/>
<path d="M240.388 433.63C246.788 443.441 252.743 453.771 255.541 465.146C258.339 476.521 257.665 489.174 251.457 499.108C245.249 509.042 232.82 515.421 221.472 512.518C212.544 510.235 205.083 499.682 209.8 491.766C213.6 485.383 223.452 484.747 229.4 489.204C235.348 493.661 237.769 501.578 237.725 509.004C237.638 518.316 234.308 527.306 228.309 534.429C225.043 538.281 220.823 541.599 215.861 542.538C210.899 543.477 205.176 541.505 202.842 537.026C200.508 532.547 202.987 525.938 207.959 525.048C211.717 524.376 215.451 526.962 217.334 530.283C219.217 533.604 219.656 537.523 220.057 541.32C220.533 545.828 220.999 550.467 219.757 554.827C218.515 559.187 215.148 563.257 210.664 563.92C206.18 564.583 201.22 560.528 202.092 556.08" stroke="#171717" stroke-width="3" stroke-linecap="round" stroke-linejoin="round"/>
<path d="M472.03 640.141C462.509 649.662 453.887 660.415 448.952 672.941C444.017 685.467 443.095 699.999 448.672 712.254C454.249 724.509 467.038 733.777 480.485 733.093C493.932 732.409 506.4 720.246 505.5 706.812C505.416 703.717 504.312 700.738 502.36 698.336C498.592 694.113 491.66 693.886 486.76 696.716C481.86 699.546 478.752 704.746 476.914 710.099C471.039 727.212 477.289 747.762 491.698 758.706C506.107 769.65 527.58 770.158 542.49 759.906C547.643 756.364 552.229 749.153 548.268 744.315C544.436 739.634 536.527 742.44 532.674 747.104C523.058 758.742 528.093 779.147 542.02 784.975C555.947 790.803 574.02 780.069 575.555 765.05" stroke="#171717" stroke-width="3" stroke-linecap="round" stroke-linejoin="round"/>
<path d="M693.4 694.408C687.771 693.585 682.126 696.595 678.339 700.841C674.552 705.087 672.29 710.441 670.129 715.705C666.042 725.66 662.311 737.823 668.711 746.475C673.343 752.736 682.09 754.775 689.771 753.488C697.452 752.201 704.356 748.169 711.065 744.213C714.781 742.021 719.081 738.113 717.193 734.236C715.293 730.336 709.323 731.408 705.853 734.005C694.088 742.811 693.353 762.805 704.443 772.452C715.533 782.099 735.234 778.597 742.323 765.724C744.271 762.189 744.823 756.83 741.265 754.924C738.824 753.618 735.818 754.769 733.424 756.159C725.505 760.759 719.016 768.411 717.432 777.432C715.848 786.453 720.003 796.632 728.232 800.648C736.546 804.705 746.909 801.808 754.087 795.971C761.265 790.134 765.942 781.851 770.451 773.771" stroke="#171717" stroke-width="3" stroke-linecap="round" stroke-linejoin="round"/>
<path d="M682.482 502.541L690.101 487.262" stroke="#171717" stroke-width="3" stroke-linecap="round" stroke-linejoin="round"/>
<path d="M653.116 497.026L648.742 449.032" stroke="#171717" stroke-width="3" stroke-linecap="round" stroke-linejoin="round"/>
<path d="M634.606 512.105L625.9 503.358" stroke="#171717" stroke-width="3" stroke-linecap="round" stroke-linejoin="round"/>
<path d="M419.799 389.135L440.454 316.035" stroke="#171717" stroke-width="3" stroke-linecap="round" stroke-linejoin="round"/>
<path d="M442.205 406.291L456.474 392.2" stroke="#171717" stroke-width="3" stroke-linecap="round" stroke-linejoin="round"/>
<path d="M383.775 379.122L378.031 366.161" stroke="#171717" stroke-width="3" stroke-linecap="round" stroke-linejoin="round"/>
<path d="M171.899 216.71L177.353 188.349" stroke="#171717" stroke-width="3" stroke-linecap="round" stroke-linejoin="round"/>
<path d="M107.69 231.882C93.9924 211.704 78.9101 192.503 62.5518 174.415" stroke="#171717" stroke-width="3" stroke-linecap="round" stroke-linejoin="round"/>
<path d="M81.3556 314.691L39.9336 317.319" stroke="#171717" stroke-width="3" stroke-linecap="round" stroke-linejoin="round"/>
<path d="M72.8224 522.045L65.1514 505.7" stroke="#171717" stroke-width="3" stroke-linecap="round" stroke-linejoin="round"/>
<path d="M59.4385 518.488C65.8139 516.53 71.4623 512.718 75.6645 507.539" stroke="#171717" stroke-width="3" stroke-linecap="round" stroke-linejoin="round"/>
<path d="M300.816 718.522L305.109 701.053" stroke="#171717" stroke-width="3" stroke-linecap="round" stroke-linejoin="round"/>
<path d="M308.335 712.748L291.859 707.667" stroke="#171717" stroke-width="3" stroke-linecap="round" stroke-linejoin="round"/>
<path d="M511.277 276.734L514.52 262.547" stroke="#171717" stroke-width="3" stroke-linecap="round" stroke-linejoin="round"/>
<path d="M519.866 271.249L505.686 266.886" stroke="#171717" stroke-width="3" stroke-linecap="round" stroke-linejoin="round"/>
<path d="M592.947 188.348L602.764 179.622" stroke="#171717" stroke-width="3" stroke-linecap="round" stroke-linejoin="round"/>
<path d="M600.931 190.337L594.285 178.395" stroke="#171717" stroke-width="3" stroke-linecap="round" stroke-linejoin="round"/>
<path d="M750.021 456.684L738.021 458.865" stroke="#171717" stroke-width="3" stroke-linecap="round" stroke-linejoin="round"/>
<path d="M744.48 466.529L739.051 450.158" stroke="#171717" stroke-width="3" stroke-linecap="round" stroke-linejoin="round"/>
<path d="M384.775 214.288C383.023 213.082 381.021 212.288 378.919 211.967C376.816 211.646 374.668 211.806 372.637 212.434" stroke="#171717" stroke-width="3" stroke-linecap="round" stroke-linejoin="round"/>
<path d="M376.971 221.072V203.619" stroke="#171717" stroke-width="3" stroke-linecap="round" stroke-linejoin="round"/>
<path d="M568.959 558.144C585.332 550.386 599.278 538.308 609.295 523.211" stroke="#171717" stroke-width="3" stroke-linecap="round" stroke-linejoin="round"/>
<path d="M172.899 500.206C167.617 504.882 161.353 508.312 154.568 510.244C147.784 512.175 140.652 512.559 133.699 511.366" stroke="#171717" stroke-width="3" stroke-linecap="round" stroke-linejoin="round"/>
<path d="M564.582 340.063C575.3 340.649 585.829 337.069 593.969 330.071" stroke="#171717" stroke-width="3" stroke-linecap="round" stroke-linejoin="round"/>
<path d="M655.178 183.989C655.947 174.12 660.147 164.832 667.05 157.736" stroke="#171717" stroke-width="3" stroke-linecap="round" stroke-linejoin="round"/>
<path d="M885.25 546.217C894.18 549.159 904.973 544.058 908.368 535.29" stroke="#171717" stroke-width="3" stroke-linecap="round" stroke-linejoin="round"/>
<path d="M69.376 742.557C79.4644 741.685 88.8274 736.955 95.514 729.351" stroke="#171717" stroke-width="3" stroke-linecap="round" stroke-linejoin="round"/>
<path d="M271.407 661.407C261.738 654.623 258.932 639.795 265.453 629.947" stroke="#171717" stroke-width="3" stroke-linecap="round" stroke-linejoin="round"/>
<g opacity="0.1">
<path d="M374.591 400.577C371.255 399.721 368.611 400.937 365.727 402.585C362.34 404.367 359.104 406.421 356.05 408.728C350.568 413.183 346.105 420.12 342.913 426.328C335.379 440.988 333.823 457.447 337.413 473.473C341.13 490.086 350.254 505.361 361.769 517.739C373.011 529.823 388.091 541.581 403.601 547.533C412.982 551.133 417.607 537.144 410.107 532.101C404.245 528.159 397.818 525.101 391.989 521.051C386.347 517.143 381.063 512.742 376.199 507.9C366.015 497.731 358.105 485.374 354.312 471.415C350.812 458.522 350.787 444.992 355.281 432.337C357.428 426.29 360.933 421.423 364.654 416.297C366.401 413.668 368.448 411.252 370.754 409.097C373.023 407.13 374.821 405.822 375.932 402.936C376.063 402.444 375.996 401.921 375.745 401.479C375.494 401.037 375.079 400.711 374.59 400.572L374.591 400.577Z" fill="#171717"/>
</g>
<g opacity="0.1">
<path d="M655.416 514.811C648.125 514.211 643.562 520.961 639.438 525.679C634.39 531.344 631.143 538.383 630.11 545.9C629.019 554.865 629.811 563.959 632.436 572.6C635.098 581.984 638.913 592.592 644.278 600.8C648.972 607.977 661.699 603.627 658.758 594.7C656.164 586.826 651.723 579.583 648.936 571.737C646.457 564.76 644.62 557.431 644.624 549.988C644.69 543.859 645.67 537.775 647.531 531.936C649.151 526.63 654.695 523.153 657.318 518.136C657.504 517.8 657.601 517.421 657.598 517.037C657.595 516.653 657.493 516.276 657.302 515.943C657.111 515.609 656.837 515.331 656.507 515.135C656.177 514.938 655.802 514.83 655.418 514.821L655.416 514.811Z" fill="#171717"/>
</g>
<g opacity="0.1">
<path d="M148.771 240.238C133.241 239.161 120.992 251.062 114.352 264.06C106.679 279.081 104.526 295.681 106.543 312.35C110.365 343.95 129.751 372.442 160.673 382.635C168.526 385.236 176.782 386.409 185.049 386.098C193.662 385.719 206.511 384.736 209.687 375.248C210.121 373.623 210.012 371.902 209.379 370.344C208.745 368.787 207.621 367.479 206.176 366.619C201.537 363.954 197.59 365.401 192.799 366.538C189.291 367.345 185.698 367.721 182.099 367.657C174.968 367.572 167.926 366.064 161.386 363.222C147.46 357.15 137.128 345.876 130.712 332.277C123.928 317.9 122.523 301.724 123.693 286.077C124.32 277.687 126.159 269.286 131.151 262.351C135.915 255.915 142.379 250.936 149.817 247.972C153.855 246.322 153.417 240.56 148.77 240.238H148.771Z" fill="#171717"/>
</g>
</g>
<defs>
<linearGradient id="paint0_linear_385_972" x1="389.888" y1="396.325" x2="389.888" y2="552.916" gradientUnits="userSpaceOnUse">
<stop stop-color="#FF9A34"/>
<stop offset="1" stop-color="#EB6421"/>
</linearGradient>
<linearGradient id="paint1_linear_385_972" x1="850.739" y1="453.299" x2="850.739" y2="522.701" gradientUnits="userSpaceOnUse">
<stop stop-color="#FF9A34"/>
<stop offset="1" stop-color="#EB6421"/>
</linearGradient>
<linearGradient id="paint2_linear_385_972" x1="436.482" y1="548.801" x2="436.482" y2="605.944" gradientUnits="userSpaceOnUse">
<stop stop-color="#FF9A34"/>
<stop offset="1" stop-color="#EB6421"/>
</linearGradient>
<linearGradient id="paint3_linear_385_972" x1="404.309" y1="467.723" x2="404.309" y2="477.405" gradientUnits="userSpaceOnUse">
<stop stop-color="#FF9A34"/>
<stop offset="1" stop-color="#EB6421"/>
</linearGradient>
<linearGradient id="paint4_linear_385_972" x1="379.836" y1="478.557" x2="379.836" y2="487.602" gradientUnits="userSpaceOnUse">
<stop stop-color="#FF9A34"/>
<stop offset="1" stop-color="#EB6421"/>
</linearGradient>
<linearGradient id="paint5_linear_385_972" x1="95.7666" y1="619.254" x2="95.7666" y2="663.132" gradientUnits="userSpaceOnUse">
<stop stop-color="#FF9A34"/>
<stop offset="1" stop-color="#EB6421"/>
</linearGradient>
<clipPath id="clip0_385_972">
<rect width="884" height="649" fill="white" transform="translate(38 156)"/>
</clipPath>
</defs>
</svg>
